<?xml version="1.0" encoding="UTF-8" standalone="no"?>
<!-- Created with Inkscape (http://www.inkscape.org/) -->
<svg xmlns:dc="http://purl.org/dc/elements/1.1/" xmlns:cc="http://creativecommons.org/ns#" xmlns:rdf="http://www.w3.org/1999/02/22-rdf-syntax-ns#" xmlns:svg="http://www.w3.org/2000/svg" xmlns="http://www.w3.org/2000/svg" xmlns:sodipodi="http://sodipodi.sourceforge.net/DTD/sodipodi-0.dtd" xmlns:inkscape="http://www.inkscape.org/namespaces/inkscape" width="105.46" height="105.46" id="svg2" version="1.1" inkscape:version="0.48.1 " sodipodi:docname="New document 1">
  <defs id="defs4">
    <clipPath id="clipPath38">
      <path id="path40" d="m 3211.09,3108.37 415,0 c 0,0 -44.92,-185.04 -206.61,-185.04 -179.65,0 -208.39,185.04 -208.39,185.04" inkscape:connector-curvature="0"/>
    </clipPath>
  </defs>
  <sodipodi:namedview id="base" pagecolor="#ffffff" bordercolor="#666666" borderopacity="1.0" inkscape:pageopacity="0.0" inkscape:pageshadow="2" inkscape:zoom="2.0813095" inkscape:cx="197.63547" inkscape:cy="25.54983" inkscape:document-units="px" inkscape:current-layer="g12" showgrid="false" fit-margin-top="0" fit-margin-left="0" fit-margin-right="0" fit-margin-bottom="0" inkscape:window-width="1280" inkscape:window-height="975" inkscape:window-x="-4" inkscape:window-y="-4" inkscape:window-maximized="1"/>
  <metadata id="metadata7">
    <rdf:RDF>
      <cc:Work rdf:about="">
        <dc:format>image/svg+xml</dc:format>
        <dc:type rdf:resource="http://purl.org/dc/dcmitype/StillImage"/>
        <dc:title/>
      </cc:Work>
    </rdf:RDF>
  </metadata>
  <g inkscape:label="Layer 1" inkscape:groupmode="layer" id="layer1" transform="translate(-290.88,-328.63476)">
    <g id="g12" transform="matrix(1.25,0,0,-1.25,-84.466253,782.31726)">
      <g id="g14" transform="matrix(0.1,0,0,0.1,0,4.8)">
        <path style="fill:#211d1d;fill-opacity:1;fill-rule:nonzero;stroke:none" id="path32" d="m 3094.31,3105.68 c 0,-176.4 146.33,-319.9 326.19,-319.9 179.86,0 326.19,143.5 326.19,319.9 0,176.39 -146.33,319.89 -326.19,319.89 -179.86,0 -326.19,-143.5 -326.19,-319.89 z m 33.36,0 c 0,175.16 124,299.89 292.83,299.89 168.84,0 291.04,-130.12 291.04,-299.89 0,-149.39 -122.2,-275.78 -291.04,-275.78 -168.83,0 -292.83,121.39 -292.83,275.78" inkscape:connector-curvature="0"/>
        <g id="g34">
          <g id="g36" clip-path="url(#clipPath38)">
            <path id="path42" d="m 3211.09,3108.37 415,0 c 0,0 -44.92,-185.04 -206.61,-185.04 -179.65,0 -208.39,185.04 -208.39,185.04" inkscape:connector-curvature="0"/>
          </g>
        </g>
        <path style="fill:#211d1d;fill-opacity:1;fill-rule:nonzero;stroke:none" id="path44" d="m 3199.41,3118.37 1.79,-11.53 c 0.3,-1.94 32.21,-193.51 218.28,-193.51 167.61,0 215.85,190.75 216.32,192.68 l 3,12.36 -439.39,0 z m 413.34,-20 c -12.86,-40.27 -63.14,-165.04 -193.27,-165.04 -145.54,0 -186.77,125.74 -196.1,165.04 22.37,0 365.16,0 389.37,0" inkscape:connector-curvature="0"/>
        <path style="fill:#211d1d;fill-opacity:1;fill-rule:nonzero;stroke:none" id="path46" d="m 3713.34,3230.53 c 0,0 25.14,14.37 35.92,-19.76 10.78,-34.13 8.99,-52.09 14.38,-57.48 5.38,-5.4 32.33,5.38 34.13,-32.34 1.54,-32.36 -32.34,-25.16 -34.13,-34.14 -1.8,-8.98 0,-21.56 -5.39,-46.71 -5.39,-25.15 -10.78,-39.52 -21.56,-43.11 -10.78,-3.6 -19.76,7.19 -19.76,7.19 0,0 19.76,50.3 14.37,113.18 -5.39,62.87 -17.96,113.17 -17.96,113.17" inkscape:connector-curvature="0"/>
        <path style="fill:#211d1d;fill-opacity:1;fill-rule:nonzero;stroke:none" id="path48" d="m 3131.31,3230.53 c 0,0 -25.15,14.37 -35.93,-19.76 -10.78,-34.13 -8.99,-52.09 -14.37,-57.48 -5.39,-5.4 -32.34,5.38 -34.13,-32.34 -1.55,-32.36 32.33,-25.16 34.13,-34.14 1.79,-8.98 0,-21.56 5.38,-46.71 5.4,-25.15 10.78,-39.52 21.56,-43.11 10.78,-3.6 19.76,7.19 19.76,7.19 0,0 -19.76,50.3 -14.37,113.18 5.39,62.87 17.97,113.17 17.97,113.17" inkscape:connector-curvature="0"/>
        <path style="fill:#587e83;fill-opacity:1;fill-rule:nonzero;stroke:none" id="path50" d="m 3469.02,3496.42 c 0,-26.79 -21.72,-48.51 -48.51,-48.51 -26.79,0 -48.51,21.72 -48.51,48.51 0,26.79 21.72,48.51 48.51,48.51 26.79,0 48.51,-21.72 48.51,-48.51" inkscape:connector-curvature="0"/>
        <path style="fill:#587e83;fill-opacity:1;fill-rule:nonzero;stroke:none" id="path52" d="m 3341.46,3474.86 c 0,-21.82 -17.71,-39.52 -39.53,-39.52 -21.82,0 -39.52,17.7 -39.52,39.52 0,21.82 17.7,39.53 39.52,39.53 21.82,0 39.53,-17.71 39.53,-39.53" inkscape:connector-curvature="0"/>
        <path style="fill:#587e83;fill-opacity:1;fill-rule:nonzero;stroke:none" id="path54" d="m 3239.89,3420.97 c 0,-18.32 -14.85,-33.17 -33.17,-33.17 -18.32,0 -33.17,14.85 -33.17,33.17 0,18.31 14.85,33.17 33.17,33.17 18.32,0 33.17,-14.86 33.17,-33.17" inkscape:connector-curvature="0"/>
        <path style="fill:#587e83;fill-opacity:1;fill-rule:nonzero;stroke:none" id="path56" d="m 3158.18,3345.51 c 0,-14.86 -12.06,-26.9 -26.91,-26.9 -14.86,0 -26.91,12.04 -26.91,26.9 0,14.86 12.05,26.91 26.91,26.91 14.85,0 26.91,-12.05 26.91,-26.91" inkscape:connector-curvature="0"/>
        <path style="fill:#587e83;fill-opacity:1;fill-rule:nonzero;stroke:none" id="path58" d="m 3097.96,3270.06 c 0,-12.36 -10.03,-22.39 -22.39,-22.39 -12.36,0 -22.39,10.03 -22.39,22.39 0,12.36 10.03,22.39 22.39,22.39 12.36,0 22.39,-10.03 22.39,-22.39" inkscape:connector-curvature="0"/>
        <path style="fill:#587e83;fill-opacity:1;fill-rule:nonzero;stroke:none" id="path60" d="m 3057.52,3196.4 c 0,-9.88 -8,-17.88 -17.88,-17.88 -9.88,0 -17.88,8 -17.88,17.88 0,9.87 8,17.88 17.88,17.88 9.88,0 17.88,-8.01 17.88,-17.88" inkscape:connector-curvature="0"/>
        <path style="fill:#587e83;fill-opacity:1;fill-rule:nonzero;stroke:none" id="path62" d="m 3029.72,3121.78 c 0,-7.44 -6.04,-13.48 -13.48,-13.48 -7.44,0 -13.47,6.04 -13.47,13.48 0,7.44 6.03,13.47 13.47,13.47 7.44,0 13.48,-6.03 13.48,-13.47" inkscape:connector-curvature="0"/>
        <path style="fill:#587e83;fill-opacity:1;fill-rule:nonzero;stroke:none" id="path64" d="m 3507.77,3474.86 c 0,-21.82 17.69,-39.52 39.52,-39.52 21.82,0 39.52,17.7 39.52,39.52 0,21.82 -17.7,39.53 -39.52,39.53 -21.83,0 -39.52,-17.71 -39.52,-39.53" inkscape:connector-curvature="0"/>
        <path style="fill:#587e83;fill-opacity:1;fill-rule:nonzero;stroke:none" id="path66" d="m 3609.33,3420.97 c 0,-18.32 14.85,-33.17 33.17,-33.17 18.32,0 33.17,14.85 33.17,33.17 0,18.31 -14.85,33.17 -33.17,33.17 -18.32,0 -33.17,-14.86 -33.17,-33.17" inkscape:connector-curvature="0"/>
        <path style="fill:#587e83;fill-opacity:1;fill-rule:nonzero;stroke:none" id="path68" d="m 3691.05,3345.51 c 0,-14.86 12.05,-26.9 26.9,-26.9 14.86,0 26.91,12.04 26.91,26.9 0,14.86 -12.05,26.91 -26.91,26.91 -14.85,0 -26.9,-12.05 -26.9,-26.91" inkscape:connector-curvature="0"/>
        <path style="fill:#587e83;fill-opacity:1;fill-rule:nonzero;stroke:none" id="path70" d="m 3751.25,3270.06 c 0,-12.36 10.04,-22.39 22.4,-22.39 12.36,0 22.39,10.03 22.39,22.39 0,12.36 -10.03,22.39 -22.39,22.39 -12.36,0 -22.4,-10.03 -22.4,-22.39" inkscape:connector-curvature="0"/>
        <path style="fill:#587e83;fill-opacity:1;fill-rule:nonzero;stroke:none" id="path72" d="m 3791.7,3196.4 c 0,-9.88 8,-17.88 17.88,-17.88 9.88,0 17.88,8 17.88,17.88 0,9.87 -8,17.88 -17.88,17.88 -9.88,0 -17.88,-8.01 -17.88,-17.88" inkscape:connector-curvature="0"/>
        <path style="fill:#587e83;fill-opacity:1;fill-rule:nonzero;stroke:none" id="path74" d="m 3819.5,3121.78 c 0,-7.44 6.04,-13.48 13.48,-13.48 7.44,0 13.48,6.04 13.48,13.48 0,7.44 -6.04,13.47 -13.48,13.47 -7.44,0 -13.48,-6.03 -13.48,-13.47" inkscape:connector-curvature="0"/>
        <path style="fill:#211d1d;fill-opacity:1;fill-rule:nonzero;stroke:none" id="path76" d="m 3194.14,3200 c 0,0 14.37,46.7 68.27,93.41 53.89,46.71 86.23,59.29 86.23,59.29 l 35.93,-70.07 -43.11,34.14 c 0,0 -31.42,-12.52 -68.56,-39.69 -42.42,-31.03 -78.76,-77.08 -78.76,-77.08" inkscape:connector-curvature="0"/>
        <path style="fill:#211d1d;fill-opacity:1;fill-rule:nonzero;stroke:none" id="path78" d="m 3641.14,3200 c 0,0 -14.37,46.7 -68.27,93.41 -53.89,46.71 -86.23,59.29 -86.23,59.29 l -35.94,-70.07 43.12,34.14 c 0,0 31.43,-12.52 68.56,-39.69 42.42,-31.03 78.76,-77.08 78.76,-77.08" inkscape:connector-curvature="0"/>
      </g>
    </g>
  </g>
</svg>
