<svg xmlns="http://www.w3.org/2000/svg" width="105.46" height="105.46"><defs><clipPath id="a"><path d="M3211.09 3108.37h415s-44.92-185.04-206.61-185.04c-179.65 0-208.39 185.04-208.39 185.04"/></clipPath></defs><path d="M11.443 59.472c0 22.05 18.291 39.987 40.774 39.987s40.774-17.938 40.774-39.987c0-22.049-18.291-39.986-40.774-39.986s-40.774 17.938-40.774 39.986zm4.17 0c0-21.895 15.5-37.486 36.604-37.486 21.105 0 36.38 16.265 36.38 37.486 0 18.674-15.275 34.472-36.38 34.472-21.104 0-36.604-15.174-36.604-34.472" fill="#211d1d"/><path d="M26.04 59.136h51.875s-5.615 23.13-25.826 23.13c-22.456 0-26.049-23.13-26.049-23.13" clip-path="url(#a)"/><path d="M24.58 57.886l.224 1.441c.037.242 4.026 24.189 27.285 24.189 20.951 0 26.981-23.844 27.04-24.085l.375-1.545h-54.924zm51.668 2.5c-1.607 5.034-7.893 20.63-24.159 20.63-18.192 0-23.346-15.717-24.512-20.63h48.671" fill="#211d1d"/><path d="M88.822 43.866s3.142-1.796 4.49 2.47c1.348 4.266 1.124 6.511 1.797 7.185.673.675 4.041-.673 4.266 4.043.193 4.045-4.043 3.145-4.266 4.268-.225 1.123 0 2.695-.674 5.839s-1.348 4.94-2.695 5.389c-1.348.45-2.47-.899-2.47-.899s2.47-6.288 1.796-14.147c-.674-7.859-2.245-14.146-2.245-14.146" fill="#211d1d"/><path d="M16.068 43.866s-3.144-1.796-4.491 2.47c-1.348 4.266-1.124 6.511-1.796 7.185-.674.675-4.043-.673-4.266 4.043-.194 4.045 4.041 3.145 4.266 4.268.224 1.123 0 2.695.673 5.839.675 3.144 1.348 4.94 2.695 5.389 1.348.45 2.47-.899 2.47-.899s-2.47-6.288-1.796-14.147c.674-7.859 2.246-14.146 2.246-14.146" fill="#211d1d"/><path d="M58.281 10.63c0 3.349-2.715 6.064-6.064 6.064s-6.064-2.715-6.064-6.064 2.715-6.064 6.064-6.064 6.064 2.715 6.064 6.064" fill="#587e83"/><path d="M42.337 13.325c0 2.728-2.214 4.94-4.941 4.94s-4.94-2.212-4.94-4.94 2.212-4.941 4.94-4.941 4.941 2.214 4.941 4.941" fill="#587e83"/><path d="M29.64 20.061c0 2.29-1.856 4.146-4.146 4.146s-4.146-1.856-4.146-4.146c0-2.289 1.856-4.146 4.146-4.146s4.146 1.857 4.146 4.146" fill="#587e83"/><path d="M19.426 29.493c0 1.857-1.507 3.362-3.364 3.362s-3.364-1.505-3.364-3.362 1.506-3.364 3.364-3.364c1.856 0 3.364 1.506 3.364 3.364" fill="#587e83"/><path d="M11.899 38.925c0 1.545-1.254 2.799-2.799 2.799s-2.799-1.254-2.799-2.799 1.254-2.799 2.799-2.799 2.799 1.254 2.799 2.799" fill="#587e83"/><path d="M6.844 48.132c0 1.235-1 2.235-2.235 2.235s-2.235-1-2.235-2.235c0-1.234 1-2.235 2.235-2.235s2.235 1.001 2.235 2.235" fill="#587e83"/><path d="M3.369 57.459c0 .93-.755 1.685-1.685 1.685s-1.684-.755-1.684-1.685.754-1.684 1.684-1.684 1.685.754 1.685 1.684" fill="#587e83"/><path d="M63.125 13.325c0 2.728 2.211 4.94 4.94 4.94 2.728 0 4.94-2.212 4.94-4.94s-2.212-4.941-4.94-4.941c-2.729 0-4.94 2.214-4.94 4.941" fill="#587e83"/><path d="M75.82 20.061c0 2.29 1.856 4.146 4.146 4.146s4.146-1.856 4.146-4.146c0-2.289-1.856-4.146-4.146-4.146s-4.146 1.857-4.146 4.146" fill="#587e83"/><path d="M86.035 29.493c0 1.857 1.506 3.362 3.362 3.362 1.857 0 3.364-1.505 3.364-3.362s-1.506-3.364-3.364-3.364c-1.856 0-3.362 1.506-3.362 3.364" fill="#587e83"/><path d="M93.56 38.925c0 1.545 1.255 2.799 2.8 2.799s2.799-1.254 2.799-2.799-1.254-2.799-2.799-2.799-2.8 1.254-2.8 2.799" fill="#587e83"/><path d="M98.617 48.132c0 1.235 1 2.235 2.235 2.235s2.235-1 2.235-2.235c0-1.234-1-2.235-2.235-2.235s-2.235 1.001-2.235 2.235" fill="#587e83"/><path d="M102.091 57.459c0 .93.755 1.685 1.685 1.685s1.685-.755 1.685-1.685-.755-1.684-1.685-1.684-1.685.754-1.685 1.684" fill="#587e83"/><path d="M23.921 47.682s1.796-5.838 8.534-11.676c6.736-5.839 10.779-7.411 10.779-7.411l4.491 8.759-5.389-4.268s-3.927 1.565-8.57 4.961c-5.303 3.879-9.845 9.635-9.845 9.635" fill="#211d1d"/><path d="M79.796 47.682s-1.796-5.838-8.534-11.676c-6.736-5.839-10.779-7.411-10.779-7.411l-4.492 8.759 5.39-4.268s3.929 1.565 8.57 4.961c5.303 3.879 9.845 9.635 9.845 9.635" fill="#211d1d"/></svg>