<?xml version="1.0" encoding="UTF-8" standalone="no"?>
<!-- Created with Inkscape (http://www.inkscape.org/) -->

<svg
   xmlns:dc="http://purl.org/dc/elements/1.1/"
   xmlns:cc="http://creativecommons.org/ns#"
   xmlns:rdf="http://www.w3.org/1999/02/22-rdf-syntax-ns#"
   xmlns:svg="http://www.w3.org/2000/svg"
   xmlns="http://www.w3.org/2000/svg"
   version="1.1"
   width="534.56"
   height="534.56"
   id="svg2">
  <defs
     id="defs4" />
  <metadata
     id="metadata7">
    <rdf:RDF>
      <cc:Work
         rdf:about="">
        <dc:format>image/svg+xml</dc:format>
        <dc:type
           rdf:resource="http://purl.org/dc/dcmitype/StillImage" />
        <dc:title></dc:title>
      </cc:Work>
    </rdf:RDF>
  </metadata>
  <g
     transform="translate(-125.41852,-130.65939)"
     id="layer1">
    <g
       transform="matrix(1.25,0,0,-1.25,123.84084,665.642)"
       id="g3765">
      <g
         id="g3767">
        <g
           transform="matrix(1,0,0,-0.839941,0,427.64801)"
           id="g3769">
          <path
             d="m 215.602,9.524 c 6.898,28.672 17.515,54.287 31.851,76.843 14.332,22.565 39.879,50.496 76.637,83.804 36.758,33.308 60.047,58.854 69.871,76.638 9.82,17.784 14.73,35.833 14.734,54.142 -0.004,25.481 -8.496,46.716 -25.48,63.7 -16.988,16.993 -37.692,25.485 -62.11,25.481 -20.707,0.004 -39.484,-6.432 -56.335,-19.31 -16.852,-12.868 -31.782,-31.647 -44.79,-56.333 0.266,39.019 5.375,70.006 15.329,92.961 9.953,22.961 25.875,41.01 47.773,54.148 21.895,13.138 51.027,20.904 87.391,23.29 l 2.789,14.729 -315.715,0 3.187,-14.729 c 48.836,0.005 86.723,-14.263 113.664,-42.8 26.938,-28.531 39.875,-71.066 38.817,-127.599 -11.949,25.216 -26.746,44.13 -44.395,56.733 -17.652,12.613 -37.625,18.914 -59.914,18.91 -23.89,0.004 -44.394,-8.623 -61.511,-25.877 -17.125,-17.253 -25.684,-37.953 -25.68,-62.109 -0.004,-19.369 4.375,-36.888 13.14,-52.552 11.938,-21.76 31.313,-43.655 58.125,-65.69 26.805,-22.025 46.579,-40.209 59.321,-54.542 19.371,-22.03 33.504,-41.67 42.398,-58.924 8.891,-17.249 15.86,-37.553 20.903,-60.914 z"
             id="path3771"
             style="fill:#000000;fill-opacity:1;fill-rule:nonzero;stroke:#dc0000;stroke-width:17.45804214;stroke-linecap:round;stroke-linejoin:round;stroke-miterlimit:4;stroke-opacity:1;stroke-dasharray:none" />
        </g>
      </g>
    </g>
  </g>
</svg>
