<svg xmlns="http://www.w3.org/2000/svg" version="1" width="115" height="115"><defs><marker orient="auto" overflow="visible"><path d="M0 0l5-5-17.5 5 17.5 5-5-5z" transform="matrix(.4 0 0 .4 4 0)" fill-rule="evenodd" stroke="#000" stroke-width="1pt"/></marker><marker orient="auto" overflow="visible"><path d="M10.69 4.437l-12.018-4.419 12.018-4.419c-1.92 2.609-1.909 6.179 0 8.839z" font-size="12" fill-rule="evenodd"/></marker></defs><path d="M58.968 8.581v74.195c-2.322-2.445-6.196-3.801-11.219-3.801-11.555 0-21.656 8.131-21.656 17.077 0 6.841 5.377 10.251 13.656 10.251 12.495 0 21.601-8.39 21.656-17.023v-60.116c12.304 5.524 21.164 11.033 25.938 19.03 4.833 8.098 1.775 19.309-11.375 29.549-.337 1.066.206 1.615 1.156 1.579 23.34-17.174 19.565-38.698-1.656-53.505-6.915-4.825-11.947-11.275-14.063-17.237h-2.438z" fill-rule="evenodd"/></svg>