<svg xmlns="http://www.w3.org/2000/svg" width="579.2" height="579.199"><path d="M443.344 287.197c0-16.527-4.131-32.661-12.397-48.398-8.266-15.728-19.336-29.727-33.203-41.998l-32.799-11.201c13.867-8.53 25.469-19.331 34.8-32.403 9.336-13.061 14.004-30.527 13.999-52.398.005-29.863-11.064-54.131-33.197-72.797-22.134-18.668-52.935-27.999-92.403-28.003-28.799.004-53.199 2.401-73.199 7.201s-37.196 10.669-51.601 17.598l15.2 53.599c12.803-5.859 28.004-11.059 45.601-15.595 17.602-4.531 36.005-6.797 55.2-6.803 24.004.005 41.739 4.272 53.203 12.803 11.47 8.536 17.203 20 17.197 34.395.005 13.873-5.195 24.672-15.6 32.403-10.396 7.734-23.599 14.531-39.6 20.4-15.996 5.87-33.061 11.739-51.196 17.598-18.135 5.87-35.2 13.468-51.201 22.804-16.001 9.335-29.204 21.606-39.605 36.801-10.4 15.205-15.6 34.805-15.6 58.799 0 16.539 4.004 32.534 12.003 47.999 8.007 15.469 18.94 29.335 32.798 41.601l36.001 11.196c-14.395 8.54-26.524 19.473-36.398 32.803-9.863 13.335-14.799 30.932-14.804 52.797.005 16.534 3.207 31.07 9.604 43.604 6.406 12.534 15.338 23.066 26.803 31.601 11.465 8.535 24.931 14.932 40.395 19.195 15.469 4.263 32.003 6.396 49.6 6.401 29.867-.005 54.404-2.539 73.604-7.603 19.204-5.064 36.269-11.329 51.196-18.799l-16.001-51.998c-12.266 5.869-27.061 11.07-44.395 15.601-17.329 4.536-36.133 6.801-56.401 6.796-22.402.005-39.736-3.594-52.001-10.796-12.266-7.196-18.399-19.33-18.399-36.401 0-13.863 5.2-24.795 15.6-32.797 10.401-7.997 23.604-14.931 39.6-20.801 16.006-5.864 33.071-11.732 51.201-17.602 18.135-5.864 35.2-13.461 51.196-22.797 16.001-9.331 29.199-21.465 39.6-36.401 10.4-14.931 15.6-34.4 15.6-58.404zm-242.398 6.401c.005-13.33 3.471-24.262 10.4-32.797 6.934-8.53 16.134-15.864 27.599-22.001 11.474-6.129 24.409-11.46 38.804-15.996 14.404-4.531 28.804-9.469 43.197-14.805 15.469 6.939 29.068 16.806 40.801 29.605 11.732 12.803 17.598 28.804 17.598 47.998 0 13.34-3.468 24.273-10.4 32.803-6.934 8.535-15.865 15.869-26.797 21.997-10.933 6.138-23.466 11.338-37.602 15.6-14.131 4.268-28.399 9.067-42.802 14.4-7.461-3.194-14.795-7.461-21.997-12.797-7.197-5.332-13.73-11.334-19.599-18.004-5.865-6.665-10.527-13.863-14-21.596-3.461-7.73-5.195-15.865-5.2-24.405z"/></svg>