<?xml version="1.0" encoding="UTF-8" standalone="no"?>
<!-- Created with Inkscape (http://www.inkscape.org/) -->

<svg xmlns:dc="http://purl.org/dc/elements/1.1/" xmlns:cc="http://creativecommons.org/ns#" xmlns:rdf="http://www.w3.org/1999/02/22-rdf-syntax-ns#" xmlns:svg="http://www.w3.org/2000/svg" xmlns="http://www.w3.org/2000/svg" xmlns:sodipodi="http://sodipodi.sourceforge.net/DTD/sodipodi-0.dtd" xmlns:inkscape="http://www.inkscape.org/namespaces/inkscape" version="1.1" width="579.20001" height="579.19922" id="svg3207" xml:space="preserve" inkscape:version="0.48.1 " sodipodi:docname="icon_left.svg"><sodipodi:namedview pagecolor="#ffffff" bordercolor="#666666" borderopacity="1" objecttolerance="10" gridtolerance="10" guidetolerance="10" inkscape:pageopacity="0" inkscape:pageshadow="2" inkscape:window-width="1280" inkscape:window-height="975" id="namedview8" showgrid="false" inkscape:snap-object-midpoints="true" inkscape:snap-page="true" inkscape:zoom="0.44544259" inkscape:cx="153.19824" inkscape:cy="289.59961" inkscape:window-x="-4" inkscape:window-y="-4" inkscape:window-maximized="1" inkscape:current-layer="svg3207" />
  <metadata id="metadata3213">
    <rdf:RDF>
      <cc:Work rdf:about="">
        <dc:format>image/svg+xml</dc:format>
        <dc:type rdf:resource="http://purl.org/dc/dcmitype/StillImage" />
        <dc:title></dc:title>
      </cc:Work>
    </rdf:RDF>
  </metadata>
  <defs id="defs3211" />
  <g transform="matrix(1.25,0,0,-1.25,136.94245,579.19422)" id="g3215">
    <g id="g3217">
      <path d="m 245.121,233.598 c 0,13.222 -3.305,26.129 -9.918,38.718 -6.613,12.582 -15.469,23.782 -26.562,33.598 l -26.239,8.961 c 11.094,6.824 20.375,15.465 27.84,25.922 7.469,10.449 11.203,24.422 11.199,41.918 0.004,23.89 -8.851,43.305 -26.558,58.238 -17.707,14.934 -42.348,22.399 -73.922,22.402 -23.039,-0.003 -42.559,-1.921 -58.559,-5.761 -16,-3.84 -29.757,-8.535 -41.281,-14.078 l 12.16,-42.879 c 10.242,4.687 22.403,8.847 36.481,12.476 14.082,3.625 28.804,5.438 44.16,5.442 19.203,-0.004 33.391,-3.418 42.562,-10.242 9.176,-6.829 13.762,-16 13.758,-27.516 0.004,-11.098 -4.156,-19.738 -12.48,-25.922 -8.317,-6.187 -18.879,-11.625 -31.68,-16.32 C 113.285,333.859 99.633,329.164 85.125,324.477 70.617,319.781 56.965,313.703 44.164,306.234 31.363,298.766 20.801,288.949 12.48,276.793 4.16,264.629 0,248.949 0,229.754 0,216.523 3.203,203.727 9.602,191.355 16.008,178.98 24.754,167.887 35.84,158.074 l 28.801,-8.957 C 53.125,142.285 43.422,133.539 35.523,122.875 27.633,112.207 23.684,98.129 23.68,80.637 23.684,67.41 26.246,55.781 31.363,45.754 36.488,35.727 43.633,27.301 52.805,20.473 61.977,13.645 72.75,8.527 85.121,5.117 97.496,1.707 110.723,0 124.801,-0.004 148.695,0 168.324,2.027 183.684,6.078 c 15.363,4.051 29.015,9.063 40.957,15.039 L 211.84,62.715 c -9.813,-4.695 -21.649,-8.856 -35.516,-12.481 -13.863,-3.629 -28.906,-5.441 -45.121,-5.437 -17.922,-0.004 -31.789,2.875 -41.601,8.637 -9.813,5.757 -14.719,15.464 -14.719,29.121 0,11.09 4.16,19.836 12.48,26.238 8.321,6.398 18.883,11.945 31.68,16.641 12.805,4.691 26.457,9.386 40.961,14.082 14.508,4.691 28.16,10.769 40.957,18.238 12.801,7.465 23.359,17.172 31.68,29.121 8.32,11.945 12.48,27.52 12.48,46.723 z M 51.203,228.477 c 0.004,10.664 2.777,19.41 8.32,26.238 5.547,6.824 12.907,12.691 22.079,17.601 9.179,4.903 19.527,9.168 31.043,12.797 11.523,3.625 23.043,7.575 34.558,11.844 12.375,-5.551 23.254,-13.445 32.641,-23.684 9.386,-10.242 14.078,-23.043 14.078,-38.398 0,-10.672 -2.774,-19.418 -8.32,-26.242 -5.547,-6.828 -12.692,-12.695 -21.438,-17.598 -8.746,-4.91 -18.773,-9.07 -30.082,-12.48 -11.305,-3.414 -22.719,-7.254 -34.242,-11.52 -5.969,2.555 -11.836,5.969 -17.598,10.238 -5.758,4.266 -10.984,9.067 -15.679,14.403 -4.692,5.332 -8.422,11.09 -11.2,17.277 -2.769,6.184 -4.156,12.692 -4.16,19.524 z" id="path3219" style="fill:#000000;fill-opacity:1;fill-rule:nonzero;stroke:none" inkscape:connector-curvature="0" />
    </g>
  </g>
</svg>