<?xml version="1.0" encoding="UTF-8" standalone="no"?>
<!-- Created with Inkscape (http://www.inkscape.org/) -->

<svg
   xmlns:dc="http://purl.org/dc/elements/1.1/"
   xmlns:cc="http://creativecommons.org/ns#"
   xmlns:rdf="http://www.w3.org/1999/02/22-rdf-syntax-ns#"
   xmlns:svg="http://www.w3.org/2000/svg"
   xmlns="http://www.w3.org/2000/svg"
   version="1.1"
   width="514.56"
   height="514.55914"
   id="svg2">
  <defs
     id="defs4" />
  <metadata
     id="metadata7">
    <rdf:RDF>
      <cc:Work
         rdf:about="">
        <dc:format>image/svg+xml</dc:format>
        <dc:type
           rdf:resource="http://purl.org/dc/dcmitype/StillImage" />
        <dc:title></dc:title>
      </cc:Work>
    </rdf:RDF>
  </metadata>
  <g
     transform="translate(-166.03294,-92.249457)"
     id="layer1">
    <g
       transform="matrix(1.25,0,0,-1.25,166.02178,606.76117)"
       id="g2993">
      <g
         id="g2995">
        <g
           transform="matrix(1,0,0,-1,0,411.60937)"
           id="g2997">
          <path
             d="m 208.371,399.609 c -6.387,-24.296 -15.496,-47.097 -27.332,-68.41 -11.84,-21.312 -34.746,-54.41 -68.719,-99.297 C 87.402,198.961 72.063,178.063 66.301,169.203 56.828,154.797 49.98,141.566 45.762,129.52 41.535,117.473 39.426,105.273 39.43,92.918 c -0.004,-22.852 7.613,-42 22.855,-57.445 15.235,-15.442 34.074,-23.164 56.52,-23.164 22.644,0 42.308,8.031 58.992,24.089 12.555,11.946 22.746,29.754 30.574,53.43 6.793,-23.265 16.367,-40.973 28.723,-53.121 C 254.18,20.238 273.949,12.004 296.395,12 c 22.234,0.004 41.074,7.672 56.519,23.008 15.441,15.34 23.16,33.613 23.164,54.82 -0.004,18.531 -4.531,37.836 -13.59,57.91 -9.062,20.078 -26.566,46.383 -52.504,78.914 -33.773,42.621 -58.379,77.625 -73.816,105.008 -12.152,21.625 -21.418,44.27 -27.797,67.949 z"
             id="path2999"
             style="fill:#dc0000;fill-opacity:1;fill-rule:nonzero;stroke:#000000;stroke-width:24;stroke-linecap:round;stroke-linejoin:round;stroke-miterlimit:4;stroke-opacity:1;stroke-dasharray:none" />
        </g>
      </g>
    </g>
  </g>
</svg>
