<svg xmlns="http://www.w3.org/2000/svg" width="514.56" height="514.559"><path d="M208.371 399.609c-6.387-24.296-15.496-47.097-27.332-68.41-11.84-21.312-34.746-54.41-68.719-99.297-24.918-32.941-40.257-53.839-46.019-62.699-9.473-14.406-16.321-27.637-20.539-39.683-4.227-12.047-6.336-24.247-6.332-36.602-.004-22.852 7.613-42 22.855-57.445 15.235-15.442 34.074-23.164 56.52-23.164 22.644 0 42.308 8.031 58.992 24.089 12.555 11.946 22.746 29.754 30.574 53.43 6.793-23.265 16.367-40.973 28.723-53.121 17.086-16.469 36.855-24.703 59.301-24.707 22.234.004 41.074 7.672 56.519 23.008 15.441 15.34 23.16 33.613 23.164 54.82-.004 18.531-4.531 37.836-13.59 57.91-9.062 20.078-26.566 46.383-52.504 78.914-33.773 42.621-58.379 77.625-73.816 105.008-12.152 21.625-21.418 44.27-27.797 67.949z" fill="#dc0000" stroke="#000" stroke-width="24" stroke-linecap="round" stroke-linejoin="round" transform="matrix(1.25 0 0 1.25 -.011 .001)"/></svg>