<svg xmlns="http://www.w3.org/2000/svg" width="80" height="80.056"><g transform="matrix(4.39 0 0 -4.377 -962.504 2420.675)"><path d="M221.198 548.816v.007l.007.007c.156.326.337.642.536.947.206.309.422.592.642.841 1.192 1.341 2.806 2.142 4.838 2.401l.585.074.337-.486 6.7-9.655.153-.216.021-.259.482-6.083.128-1.593-1.476.621-5.75 2.426-.262.114-.16.231-6.704 9.655-.319.461.241.507zm2.167-.106l-.149-.241 6.204-8.935 4.012-1.699-.337 4.235-6.2 8.928c-1.273-.259-2.295-.816-3.054-1.674-.177-.199-.337-.404-.475-.614" fill="#485683"/><path d="M222.077 548.401c1.022 2.118 2.777 3.338 5.264 3.657l6.704-9.655.486-6.087-5.75 2.43-6.704 9.655" fill="#fbc707" fill-rule="evenodd"/><path d="M227.625 551.65l1.5-2.16c-2.061-.28-4.256-2.032-5.253-3.675l-1.507 2.171c.89 1.664 3.398 3.327 5.26 3.664" fill="#e9e9e9" fill-rule="evenodd"/><path d="M226.132 548.188c-.968-.688-1.745-1.525-2.259-2.373l-1.507 2.171c.447.834 1.316 1.678 2.288 2.345l1.479-2.142" fill="#d3d2d2" fill-rule="evenodd"/><path d="M221.304 548.497c1.078 2.575 3.327 3.817 6.019 4.395l.436.018.305-.312.248-.255.912-1.451-1.465-.192h-.004c-.192-.028-.408-.085-.638-.163h-.004c-.238-.085-.489-.195-.759-.326-1.348-.667-2.706-1.766-3.104-2.628l-.738-1.39-.997 1.319-.128.231-.206.362.121.394" fill="#485683"/><path d="M222.191 548.245c.756 2.167 2.469 3.355 5.175 3.675l.248-.259c-1.827-.28-4.576-2.21-5.246-3.675l-.177.259" fill="#f79aaa" fill-rule="evenodd"/><path d="M234.41 538.597l.223-2.455-2.323.983.975.958 1.124.514" fill="#485683" fill-rule="evenodd"/><path d="M228.618 539.75l.138.156c.507.571 1.029 1.153 1.139 2.146l-3.877 5.583c-.348-.273-.663-.557-.936-.844-.287-.305-.532-.614-.738-.929l4.274-6.111zm.741-.383c-.16-.177-.319-.355-.454-.529l-.333-.433-.316.45-4.725 6.761-.145.206.128.223c.255.443.585.88.986 1.302.397.415.855.816 1.373 1.192l.337.241.234-.337 4.196-6.048.078-.114-.007-.142c-.092-1.362-.734-2.079-1.351-2.774" fill="#485683"/><path d="M228.59 539.087c.67.865 1.61 1.515 1.717 3.079l-4.196 6.048c-1.007-.731-1.773-1.543-2.245-2.366l4.725-6.761" fill="#485683" fill-rule="evenodd"/><path d="M233.165 542.907l-.199-.074c-.706-.277-1.437-.564-2.408-.316l-3.873 5.579c.383.234.756.429 1.121.582.383.167.763.291 1.128.369l4.232-6.14zm.099-.826c.223.089.443.17.653.238l.521.16-.312.454-4.682 6.793-.142.209-.255-.043c-.5-.085-1.025-.241-1.561-.468-.529-.227-1.334-.706-1.866-1.061l4.576-6.58c1.305-.39 2.199-.043 3.068.298" fill="#485683"/><path d="M233.779 542.726c-1.046-.326-1.983-.983-3.483-.536l-4.196 6.048c1.032.688 2.061 1.121 3.001 1.277l4.678-6.789" fill="#99def9" fill-rule="evenodd"/><path d="M230.08 549.557l-1.465-.195v.004c-.195-.028-.408-.089-.638-.167h-.004c-2.174-.756-3.551-2.362-4.6-4.342l-.546.802c.482.681 2.008 4.154 6.746 4.725.216-.206.333-.55.507-.826" fill="#485683"/></g></svg>