<?xml version="1.0" encoding="UTF-8" standalone="no"?>
<!-- Created with Inkscape (http://www.inkscape.org/) -->

<svg
   xmlns:dc="http://purl.org/dc/elements/1.1/"
   xmlns:cc="http://creativecommons.org/ns#"
   xmlns:rdf="http://www.w3.org/1999/02/22-rdf-syntax-ns#"
   xmlns:svg="http://www.w3.org/2000/svg"
   xmlns="http://www.w3.org/2000/svg"
   version="1.1"
   width="80"
   height="80.056396"
   id="svg2"
   xml:space="preserve"><metadata
     id="metadata3051"><rdf:RDF><cc:Work
         rdf:about=""><dc:format>image/svg+xml</dc:format><dc:type
           rdf:resource="http://purl.org/dc/dcmitype/StillImage" /><dc:title></dc:title></cc:Work></rdf:RDF></metadata><defs
     id="defs6" /><g
     transform="matrix(4.3898402,0,0,-4.3766098,-962.5042,2420.6749)"
     id="g12"><g
       transform="matrix(0.3546999,0,0,0.3546999,-578.73204,-1450.6948)"
       id="g14"><path
         d="m 2255.23,5637.19 0,0.02 0.02,0.02 c 0.44,0.92 0.95,1.81 1.51,2.67 0.58,0.87 1.19,1.67 1.81,2.37 3.36,3.78 7.91,6.04 13.64,6.77 l 1.65,0.21 0.95,-1.37 18.89,-27.22 0.43,-0.61 0.06,-0.73 1.36,-17.15 0.36,-4.49 -4.16,1.75 -16.21,6.84 -0.74,0.32 -0.45,0.65 -18.9,27.22 -0.9,1.3 0.68,1.43 z m 6.11,-0.3 c -0.15,-0.22 -0.29,-0.45 -0.42,-0.68 l 17.49,-25.19 11.31,-4.79 -0.95,11.94 -17.48,25.17 c -3.59,-0.73 -6.47,-2.3 -8.61,-4.72 -0.5,-0.56 -0.95,-1.14 -1.34,-1.73"
         id="path44"
         style="fill:#485683;fill-opacity:1;fill-rule:nonzero;stroke:none" /><path
         d="m 2257.71,5636.02 c 2.88,5.97 7.83,9.41 14.84,10.31 l 18.9,-27.22 1.37,-17.16 -16.21,6.85 -18.9,27.22"
         id="path46"
         style="fill:#fbc707;fill-opacity:1;fill-rule:evenodd;stroke:none" /><path
         d="m 2273.35,5645.18 4.23,-6.09 c -5.81,-0.79 -12,-5.73 -14.81,-10.36 l -4.25,6.12 c 2.51,4.69 9.58,9.38 14.83,10.33"
         id="path48"
         style="fill:#e9e9e9;fill-opacity:1;fill-rule:evenodd;stroke:none" /><path
         d="m 2269.14,5635.42 c -2.73,-1.94 -4.92,-4.3 -6.37,-6.69 l -4.25,6.12 c 1.26,2.35 3.71,4.73 6.45,6.61 l 4.17,-6.04"
         id="path50"
         style="fill:#d3d2d2;fill-opacity:1;fill-rule:evenodd;stroke:none" /><path
         d="m 2255.53,5636.29 c 3.04,7.26 9.38,10.76 16.97,12.39 l 1.23,0.05 0.86,-0.88 0.7,-0.72 2.57,-4.09 -4.13,-0.54 -0.01,0 0,0 c -0.54,-0.08 -1.15,-0.24 -1.8,-0.46 l -0.01,0 c -0.67,-0.24 -1.38,-0.55 -2.14,-0.92 -3.8,-1.88 -7.63,-4.98 -8.75,-7.41 l -2.08,-3.92 -2.81,3.72 -0.36,0.65 -0.58,1.02 0.34,1.11"
         id="path52"
         style="fill:#485683;fill-opacity:1;fill-rule:nonzero;stroke:none" /><path
         d="m 2258.03,5635.58 c 2.13,6.11 6.96,9.46 14.59,10.36 l 0.7,-0.73 c -5.15,-0.79 -12.9,-6.23 -14.79,-10.36 l -0.5,0.73"
         id="path54"
         style="fill:#f79aaa;fill-opacity:1;fill-rule:evenodd;stroke:none" /><path
         d="m 2292.48,5608.38 0.63,-6.92 -6.55,2.77 2.75,2.7 3.17,1.45"
         id="path56"
         style="fill:#485683;fill-opacity:1;fill-rule:evenodd;stroke:none" /><path
         d="m 2276.15,5611.63 c 0.13,0.15 0.26,0.3 0.39,0.44 1.43,1.61 2.9,3.25 3.21,6.05 l -10.93,15.74 c -0.98,-0.77 -1.87,-1.57 -2.64,-2.38 -0.81,-0.86 -1.5,-1.73 -2.08,-2.62 l 12.05,-17.23 z m 2.09,-1.08 c -0.45,-0.5 -0.9,-1 -1.28,-1.49 l -0.94,-1.22 -0.89,1.27 -13.32,19.06 -0.41,0.58 0.36,0.63 c 0.72,1.25 1.65,2.48 2.78,3.67 1.12,1.17 2.41,2.3 3.87,3.36 l 0.95,0.68 0.66,-0.95 11.83,-17.05 0.22,-0.32 -0.02,-0.4 c -0.26,-3.84 -2.07,-5.86 -3.81,-7.82"
         id="path58"
         style="fill:#485683;fill-opacity:1;fill-rule:nonzero;stroke:none" /><path
         d="m 2276.07,5609.76 c 1.89,2.44 4.54,4.27 4.84,8.68 l -11.83,17.05 c -2.84,-2.06 -5,-4.35 -6.33,-6.67 l 13.32,-19.06"
         id="path60"
         style="fill:#485683;fill-opacity:1;fill-rule:evenodd;stroke:none" /><path
         d="m 2288.97,5620.53 c -0.19,-0.07 -0.37,-0.14 -0.56,-0.21 -1.99,-0.78 -4.05,-1.59 -6.79,-0.89 l -10.92,15.73 c 1.08,0.66 2.13,1.21 3.16,1.64 1.08,0.47 2.15,0.82 3.18,1.04 l 11.93,-17.31 z m 0.28,-2.33 c 0.63,0.25 1.25,0.48 1.84,0.67 l 1.47,0.45 -0.88,1.28 -13.2,19.15 -0.4,0.59 -0.72,-0.12 c -1.41,-0.24 -2.89,-0.68 -4.4,-1.32 -1.49,-0.64 -3.76,-1.99 -5.26,-2.99 l 12.9,-18.55 c 3.68,-1.1 6.2,-0.12 8.65,0.84"
         id="path62"
         style="fill:#485683;fill-opacity:1;fill-rule:nonzero;stroke:none" /><path
         d="m 2290.7,5620.02 c -2.95,-0.92 -5.59,-2.77 -9.82,-1.51 l -11.83,17.05 c 2.91,1.94 5.81,3.16 8.46,3.6 l 13.19,-19.14"
         id="path64"
         style="fill:#99def9;fill-opacity:1;fill-rule:evenodd;stroke:none" /><path
         d="m 2280.27,5639.28 -4.13,-0.55 0,0.01 c -0.55,-0.08 -1.15,-0.25 -1.8,-0.47 l -0.01,0 c -6.13,-2.13 -10.01,-6.66 -12.97,-12.24 l -1.54,2.26 c 1.36,1.92 5.66,11.71 19.02,13.32 0.61,-0.58 0.94,-1.55 1.43,-2.33"
         id="path66"
         style="fill:#485683;fill-opacity:1;fill-rule:nonzero;stroke:none" /></g></g></svg>