<?xml version="1.0" encoding="utf-8" standalone="no"?>
<svg
   xmlns:dc="http://purl.org/dc/elements/1.1/"
   xmlns:cc="http://creativecommons.org/ns#"
   xmlns:rdf="http://www.w3.org/1999/02/22-rdf-syntax-ns#"
   xmlns:svg="http://www.w3.org/2000/svg"
   xmlns="http://www.w3.org/2000/svg"
   xmlns:xlink="http://www.w3.org/1999/xlink"
   xmlns:sodipodi="http://sodipodi.sourceforge.net/DTD/sodipodi-0.dtd"
   xmlns:inkscape="http://www.inkscape.org/namespaces/inkscape"
   width="230.27927"
   height="244.65962"
   id="svg4156"
   sodipodi:version="0.32"
   inkscape:version="0.46"
   sodipodi:docname="pdf1.svg"
   inkscape:output_extension="org.inkscape.output.svg.inkscape"
   version="1.0">
  <defs
     id="defs4158">
    <linearGradient
       id="linearGradient3374">
      <stop
         style="stop-color:#8a0000;stop-opacity:1;"
         offset="0"
         id="stop3376" />
      <stop
         id="stop3382"
         offset="1"
         style="stop-color:#e70000;stop-opacity:0.99586779;" />
    </linearGradient>
    <linearGradient
       id="linearGradient3384">
      <stop
         style="stop-color:#c40000;stop-opacity:1;"
         offset="0"
         id="stop3386" />
      <stop
         id="stop3392"
         offset="1"
         style="stop-color:#f40000;stop-opacity:1;" />
    </linearGradient>
    <filter
       inkscape:collect="always"
       id="filter4088"
       x="-0.094968423"
       width="1.1899368"
       y="-0.29770121"
       height="1.5954024">
      <feGaussianBlur
         inkscape:collect="always"
         stdDeviation="6.5420731"
         id="feGaussianBlur4090" />
    </filter>
    <linearGradient
       id="linearGradient3413">
      <stop
         id="stop3415"
         offset="0"
         style="stop-color:#ffffff;stop-opacity:1;" />
      <stop
         id="stop3417"
         offset="1"
         style="stop-color:#c8c8c8;stop-opacity:1;" />
    </linearGradient>
    <filter
       inkscape:collect="always"
       id="filter3882"
       x="-0.13353121"
       width="1.2670624"
       y="-0.13014853"
       height="1.2602971">
      <feGaussianBlur
         inkscape:collect="always"
         stdDeviation="3.6427263"
         id="feGaussianBlur3884" />
    </filter>
    <linearGradient
       id="linearGradient3397">
      <stop
         style="stop-color:#ffffff;stop-opacity:1;"
         offset="0"
         id="stop3399" />
      <stop
         style="stop-color:#e1e1e1;stop-opacity:1;"
         offset="1"
         id="stop3401" />
    </linearGradient>
    <filter
       inkscape:collect="always"
       id="filter3666">
      <feGaussianBlur
         inkscape:collect="always"
         stdDeviation="5.5239898"
         id="feGaussianBlur3668" />
    </filter>
    <linearGradient
       inkscape:collect="always"
       xlink:href="#linearGradient3413"
       id="linearGradient2445"
       gradientUnits="userSpaceOnUse"
       gradientTransform="translate(-291.4276,367.47952)"
       x1="800.48877"
       y1="250.04961"
       x2="810.05359"
       y2="241.23303" />
    <linearGradient
       inkscape:collect="always"
       xlink:href="#linearGradient3397"
       id="linearGradient2449"
       gradientUnits="userSpaceOnUse"
       gradientTransform="translate(-291.4276,367.47952)"
       x1="695.18744"
       y1="383.02042"
       x2="761.95831"
       y2="262.03601" />
    <linearGradient
       inkscape:collect="always"
       xlink:href="#linearGradient3384"
       id="linearGradient2468"
       gradientUnits="userSpaceOnUse"
       gradientTransform="translate(-131.79577,30.55088)"
       x1="514.96765"
       y1="595.00555"
       x2="481.08664"
       y2="569.93372" />
    <linearGradient
       inkscape:collect="always"
       xlink:href="#linearGradient3374"
       id="linearGradient2470"
       gradientUnits="userSpaceOnUse"
       gradientTransform="matrix(1.0008371,0,0,0.9217716,-260.6285,-41.50626)"
       x1="679.4447"
       y1="726.94238"
       x2="590.53723"
       y2="693.07727" />
  </defs>
  <sodipodi:namedview
     id="base"
     pagecolor="#ffffff"
     bordercolor="#666666"
     borderopacity="1.0"
     gridtolerance="10000"
     guidetolerance="10"
     objecttolerance="10"
     inkscape:pageopacity="0.0"
     inkscape:pageshadow="2"
     inkscape:zoom="0.35"
     inkscape:cx="375"
     inkscape:cy="520"
     inkscape:document-units="px"
     inkscape:current-layer="layer1"
     showgrid="false"
     inkscape:window-width="1280"
     inkscape:window-height="968"
     inkscape:window-x="-5"
     inkscape:window-y="-3"
     showborder="false"
     inkscape:showpageshadow="false" />
  <metadata
     id="metadata4161">
    <rdf:RDF>
      <cc:Work
         rdf:about="">
        <dc:format>image/svg+xml</dc:format>
        <dc:type
           rdf:resource="http://purl.org/dc/dcmitype/StillImage" />
      </cc:Work>
    </rdf:RDF>
  </metadata>
  <g
     inkscape:label="Layer 1"
     inkscape:groupmode="layer"
     id="layer1"
     transform="translate(-319.14612,-572.88953)">
    <g
       id="g2481">
      <path
         sodipodi:nodetypes="cccccc"
         id="path3490"
         d="M 369.89035,579.91532 L 483.86236,579.91532 C 507.97263,597.00184 530.06379,619.43599 548.92319,647.28335 L 548.92319,817.54914 L 369.89035,817.54914 L 369.89035,579.91532 z"
         style="fill:#616161;fill-opacity:1;fill-rule:evenodd;stroke:none;stroke-width:1px;stroke-linecap:butt;stroke-linejoin:miter;stroke-opacity:1;filter:url(#filter3666)" />
      <path
         sodipodi:nodetypes="cccccc"
         id="rect2470"
         d="M 368.22196,574.40848 L 482.19397,574.40848 C 506.30424,591.495 528.39541,613.92915 547.25481,641.77651 L 547.25481,812.0423 L 368.22196,812.0423 L 368.22196,574.40848 z"
         style="fill:url(#linearGradient2449);fill-opacity:1;fill-rule:evenodd;stroke:#c8c8c8;stroke-width:1px;stroke-linecap:butt;stroke-linejoin:miter;stroke-opacity:1" />
      <path
         transform="matrix(1.0830749,0,0,1.0231344,-478.22968,342.6438)"
         sodipodi:nodetypes="cccc"
         id="path3670"
         d="M 887.99357,225.03957 C 912.17202,256.60546 926.36183,267.12205 948.83103,294.17553 C 932.64447,283.9595 919.81703,284.37717 899.69483,278.39603 C 895.42079,255.34193 893.49587,245.66917 887.99357,225.03957 z"
         style="fill:#616161;fill-opacity:1;fill-rule:evenodd;stroke:none;stroke-width:1px;stroke-linecap:butt;stroke-linejoin:miter;stroke-opacity:1;filter:url(#filter3882)" />
      <path
         sodipodi:nodetypes="cccc"
         id="path3395"
         d="M 481.90912,574.12387 C 507.19984,592.14934 527.50711,614.24397 547.38102,641.29745 C 534.90201,628.33409 520.96231,622.47214 500.65473,623.35933 C 503.05428,599.32404 495.56803,586.119 481.90912,574.12387 z"
         style="fill:url(#linearGradient2445);fill-opacity:1;fill-rule:evenodd;stroke:#c8c8c8;stroke-width:1px;stroke-linecap:butt;stroke-linejoin:miter;stroke-opacity:1" />
      <rect
         y="591.19513"
         x="324.42117"
         height="52.740719"
         width="165.32838"
         id="rect3886"
         style="fill:#3f3f3f;fill-opacity:1;stroke:none;stroke-width:6.0619998;stroke-miterlimit:4;stroke-dasharray:none;stroke-opacity:1;filter:url(#filter4088)" />
      <rect
         y="589.11932"
         x="322.17712"
         height="52.740719"
         width="165.32838"
         id="rect3372"
         style="fill:url(#linearGradient2468);fill-opacity:1;stroke:url(#linearGradient2470);stroke-width:6.0619998;stroke-miterlimit:4;stroke-dasharray:none;stroke-opacity:1" />
      <path
         id="text3419"
         d="M 421.01299,519.04067 L 434.54105,519.04067 C 438.56346,519.0407 441.64732,519.93693 443.79264,521.72935 C 445.95202,523.50771 447.03172,526.04819 447.03175,529.35079 C 447.03172,532.66755 445.95202,535.22214 443.79264,537.01458 C 441.64732,538.79293 438.56346,539.6821 434.54105,539.68209 L 429.1637,539.68209 L 429.1637,550.6485 L 421.01299,550.6485 L 421.01299,519.04067 M 429.1637,524.94729 L 429.1637,533.77547 L 433.67305,533.77547 C 435.25378,533.77548 436.47462,533.39441 437.33558,532.63225 C 438.1965,531.85601 438.62697,530.76219 438.62699,529.35079 C 438.62697,527.93944 438.1965,526.85268 437.33558,526.09051 C 436.47462,525.32839 435.25378,524.94732 433.67305,524.94729 L 429.1637,524.94729 M 460.91972,525.20134 L 460.91972,544.48783 L 463.84127,544.48783 C 467.17211,544.48784 469.71259,543.66218 471.46272,542.01086 C 473.22692,540.35956 474.10903,537.96022 474.10905,534.81283 C 474.10903,531.67959 473.23398,529.29436 471.48389,527.65714 C 469.73376,526.01996 467.18622,525.20137 463.84127,525.20134 L 460.91972,525.20134 M 452.76901,519.04067 L 461.3643,519.04067 C 466.16297,519.0407 469.73376,519.38649 472.07667,520.07803 C 474.43365,520.75553 476.45192,521.91286 478.13148,523.55003 C 479.6134,524.97554 480.71427,526.6198 481.43411,528.4828 C 482.15388,530.34584 482.51378,532.45584 482.51381,534.81283 C 482.51378,537.19807 482.15388,539.32925 481.43411,541.20637 C 480.71427,543.0694 479.6134,544.71366 478.13148,546.13914 C 476.4378,547.77635 474.40542,548.94073 472.03433,549.63231 C 469.66319,550.30977 466.10652,550.6485 461.3643,550.6485 L 452.76901,550.6485 L 452.76901,519.04067 M 488.75916,519.04067 L 510.7555,519.04067 L 510.7555,525.20134 L 496.90988,525.20134 L 496.90988,531.08679 L 509.92985,531.08679 L 509.92985,537.24746 L 496.90988,537.24746 L 496.90988,550.6485 L 488.75916,550.6485 L 488.75916,519.04067"
         style="font-size:43.35755539px;font-style:normal;font-weight:normal;fill:#fff9f9;fill-opacity:1;stroke:none;stroke-width:1px;stroke-linecap:butt;stroke-linejoin:miter;stroke-opacity:1;font-family:Bitstream Vera Sans"
         transform="scale(0.8689741,1.1507823)" />
      <path
         id="text3423"
         d="M 584.17926,611.97282 L 572.99957,611.97282 L 571.23533,617.02411 L 564.04838,617.02411 L 574.3181,589.29772 L 582.84216,589.29772 L 593.11188,617.02411 L 585.92493,617.02411 L 584.17926,611.97282 M 574.78238,606.82867 L 582.37788,606.82867 L 578.58942,595.79754 L 574.78238,606.82867 M 610.62426,599.2703 L 610.62426,588.12775 L 617.3098,588.12775 L 617.3098,617.02411 L 610.62426,617.02411 L 610.62426,614.01562 C 609.70808,615.2413 608.69906,616.1389 607.5972,616.7084 C 606.49531,617.27791 605.22011,617.56267 603.77159,617.56267 C 601.2088,617.56267 599.10409,616.54746 597.45748,614.51703 C 595.81085,612.47424 594.98754,609.84955 594.98754,606.64296 C 594.98754,603.43639 595.81085,600.8179 597.45748,598.78746 C 599.10409,596.74468 601.2088,595.72328 603.77159,595.72326 C 605.20773,595.72328 606.47674,596.01422 607.57863,596.59609 C 608.69287,597.16562 609.70808,598.05702 610.62426,599.2703 M 606.24152,612.73422 C 607.66528,612.73423 608.74858,612.21424 609.49144,611.17427 C 610.24664,610.1343 610.62425,608.62387 610.62426,606.64296 C 610.62425,604.66207 610.24664,603.15164 609.49144,602.11166 C 608.74858,601.0717 607.66528,600.55171 606.24152,600.5517 C 604.83012,600.55171 603.74682,601.0717 602.99161,602.11166 C 602.24877,603.15164 601.87735,604.66207 601.87736,606.64296 C 601.87735,608.62387 602.24877,610.1343 602.99161,611.17427 C 603.74682,612.21424 604.83012,612.73423 606.24152,612.73422 M 633.63364,600.47741 C 632.16034,600.47743 631.0337,601.0098 630.25373,602.07451 C 629.48612,603.12688 629.10233,604.64969 629.10233,606.64296 C 629.10233,608.63625 629.48612,610.16525 630.25373,611.22998 C 631.0337,612.28234 632.16034,612.80851 633.63364,612.80851 C 635.08216,612.80851 636.19022,612.28234 636.95784,611.22998 C 637.72542,610.16525 638.10922,608.63625 638.10923,606.64296 C 638.10922,604.64969 637.72542,603.12688 636.95784,602.07451 C 636.19022,601.0098 635.08216,600.47743 633.63364,600.47741 M 633.63364,595.72326 C 637.21162,595.72328 640.00345,596.68897 642.00913,598.62032 C 644.02715,600.55171 645.03616,603.22592 645.03619,606.64296 C 645.03616,610.06002 644.02715,612.73423 642.00913,614.6656 C 640.00345,616.59698 637.21162,617.56267 633.63364,617.56267 C 630.04325,617.56267 627.23285,616.59698 625.20244,614.6656 C 623.1844,612.73423 622.17538,610.06002 622.17538,606.64296 C 622.17538,603.22592 623.1844,600.55171 625.20244,598.62032 C 627.23285,596.68897 630.04325,595.72328 633.63364,595.72326 M 660.95147,612.73422 C 662.37523,612.73423 663.45853,612.21424 664.20139,611.17427 C 664.95659,610.1343 665.33419,608.62387 665.33421,606.64296 C 665.33419,604.66207 664.95659,603.15164 664.20139,602.11166 C 663.45853,601.0717 662.37523,600.55171 660.95147,600.5517 C 659.52769,600.55171 658.43201,601.07789 657.66442,602.13023 C 656.90919,603.17021 656.53158,604.67446 656.53159,606.64296 C 656.53158,608.61149 656.90919,610.12192 657.66442,611.17427 C 658.43201,612.21424 659.52769,612.73423 660.95147,612.73422 M 656.53159,599.2703 C 657.44775,598.05702 658.46296,597.16562 659.57723,596.59609 C 660.69147,596.01422 661.97286,595.72328 663.42141,595.72326 C 665.98418,595.72328 668.08888,596.74468 669.73552,598.78746 C 671.38212,600.8179 672.20543,603.43639 672.20546,606.64296 C 672.20543,609.84955 671.38212,612.47424 669.73552,614.51703 C 668.08888,616.54746 665.98418,617.56267 663.42141,617.56267 C 661.97286,617.56267 660.69147,617.27791 659.57723,616.7084 C 658.46296,616.12652 657.44775,615.22892 656.53159,614.01562 L 656.53159,617.02411 L 649.8832,617.02411 L 649.8832,588.12775 L 656.53159,588.12775 L 656.53159,599.2703 M 697.90761,606.56868 L 697.90761,608.46291 L 682.36375,608.46291 C 682.52469,610.02288 683.088,611.19284 684.0537,611.97282 C 685.01938,612.7528 686.36887,613.14279 688.10216,613.14279 C 689.50116,613.14279 690.93112,612.93851 692.39205,612.52994 C 693.86532,612.10901 695.37576,611.4776 696.92335,610.63571 L 696.92335,615.76129 C 695.35099,616.35556 693.77866,616.80126 692.20634,617.09839 C 690.63398,617.40791 689.06165,617.56267 687.48932,617.56267 C 683.72561,617.56267 680.79759,616.60936 678.70528,614.70274 C 676.62533,612.78375 675.58536,610.09716 675.58536,606.64296 C 675.58536,603.25069 676.60676,600.58267 678.64956,598.63889 C 680.70474,596.69516 683.52752,595.72328 687.11791,595.72326 C 690.38637,595.72328 692.99868,596.70754 694.95484,598.67603 C 696.92333,600.64457 697.90759,603.27545 697.90761,606.56868 M 691.07351,604.35874 C 691.0735,603.09593 690.70208,602.08072 689.95926,601.31311 C 689.22879,600.53314 688.26929,600.14315 687.08076,600.14314 C 685.79317,600.14315 684.74701,600.50838 683.94228,601.23882 C 683.13753,601.95691 682.63611,602.99688 682.43803,604.35874 L 691.07351,604.35874"
         style="font-size:38.03325653px;font-style:normal;font-weight:normal;fill:#343434;fill-opacity:1;stroke:none;stroke-width:1px;stroke-linecap:butt;stroke-linejoin:miter;stroke-opacity:1;font-family:Bitstream Vera Sans"
         transform="scale(0.7711411,1.2967796)" />
      <path
         id="path3480"
         d="M 444.90625,645.90625 C 440.32312,646.17534 436.82756,648.47173 436.0625,652.1875 C 433.65592,663.87575 435.8204,680.51554 441.5625,696.34375 C 436.68533,708.58028 430.9377,720.16895 425.0625,732.40625 C 409.61368,761.40011 392.1888,786.60155 385.5,784.75 C 382.27013,779.90664 395.08265,765.93949 409.28125,754.75 C 400.09995,760.35008 390.64513,764.98751 383.84375,773.5625 C 380.17344,778.61802 378.52217,784.14092 383.8125,786.65625 C 392.53799,791.46335 401.89836,783.22974 417.625,758.3125 C 419.04707,755.59 420.4706,752.90921 421.90625,750.25 C 439.46287,745.32954 456.83647,740.53 475.15625,737.8125 C 496.92591,750.58203 522.98788,755.39398 521.875,744.75 C 513.7079,749.16774 498.70643,743.64703 485.34375,736.53125 C 490.18028,736.04784 495.07853,735.70815 500.09375,735.59375 C 506.64026,735.65163 513.95605,734.76098 522.40625,741.46875 C 523.58559,738.35669 521.89394,735.88047 518.9375,733.6875 C 510.9054,729.01483 501.36304,730.68748 491.96875,731.375 C 487.39443,731.91718 483.11507,732.47683 479.125,733.0625 C 476.22432,731.35773 473.44993,729.6348 470.96875,728 C 465.40542,722.81808 460.91504,718.05526 457.5,713.3125 C 452.72434,706.68011 449.57179,700.64954 447.34375,694.6875 C 447.75147,693.3789 448.1723,692.06937 448.5625,690.71875 C 449.88397,686.14461 451.14867,674.57358 450.65625,667.375 C 449.10559,674.35041 447.19416,680.90173 445,687.21875 C 443.65357,682.06987 442.74451,676.79085 441.90625,671.03125 C 439.36105,644.58802 446.12185,640.03698 451.65625,663.625 C 454.29444,649.13159 446.44182,646.17205 444.90625,645.90625 z M 444.40625,703.375 C 446.50853,708.15872 448.92652,712.80131 451.65625,717.09375 C 455.92544,723.62142 462.50065,729.53417 469.9375,734.53125 C 448.74993,738.17525 436.76291,742.25922 428.78125,745.25 C 426.60239,746.06644 424.94786,746.7989 423.375,747.59375 C 430.87952,733.74938 438.31006,720.16449 444.40625,703.375 z M 526.625,750.09375 C 526.01776,750.09376 525.43359,750.18651 524.90625,750.40625 C 524.38291,750.62598 523.9042,750.97081 523.46875,751.40625 C 523.0333,751.84171 522.71571,752.32043 522.5,752.84375 C 522.28427,753.36709 522.1875,753.91601 522.1875,754.53125 C 522.1875,755.13849 522.28425,755.72664 522.5,756.25 C 522.71573,756.76935 523.0333,757.22078 523.46875,757.65625 C 523.9042,758.0917 524.38292,758.43653 524.90625,758.65625 C 525.43358,758.87597 526.01778,758.96875 526.625,758.96875 C 527.23223,758.96875 527.78917,758.87598 528.3125,758.65625 C 528.83983,758.43653 529.31452,758.09167 529.75,757.65625 C 530.18544,757.2208 530.50302,756.76932 530.71875,756.25 C 530.93447,755.72666 531.06248,755.13846 531.0625,754.53125 C 531.06249,753.91603 530.93447,753.36711 530.71875,752.84375 C 530.50301,752.32042 530.18542,751.84171 529.75,751.40625 C 529.31454,750.97081 528.83985,750.62595 528.3125,750.40625 C 527.78915,750.18654 527.23225,750.09374 526.625,750.09375 z M 526.625,751 C 527.10838,751.00001 527.55724,751.07823 527.96875,751.25 C 528.38422,751.42179 528.7422,751.71093 529.09375,752.0625 C 529.4413,752.41007 529.70319,752.77203 529.875,753.1875 C 530.05077,753.59899 530.15622,754.04384 530.15625,754.53125 C 530.15624,755.01464 530.05075,755.45953 529.875,755.875 C 529.70321,756.28648 529.44132,756.68371 529.09375,757.03125 C 528.74618,757.37881 528.38023,757.6407 527.96875,757.8125 C 527.55726,757.98029 527.1164,758.06252 526.625,758.0625 C 526.1416,758.0625 525.66945,757.98426 525.25,757.8125 C 524.83452,757.64072 524.46859,757.37484 524.125,757.03125 C 523.77744,756.68369 523.51952,756.28649 523.34375,755.875 C 523.17196,755.45953 523.09376,755.01462 523.09375,754.53125 C 523.09375,754.04387 523.17196,753.59899 523.34375,753.1875 C 523.51953,752.77203 523.77746,752.41005 524.125,752.0625 C 524.47256,751.71495 524.86576,751.45306 525.28125,751.28125 C 525.69672,751.10548 526.14163,751.00003 526.625,751 z M 524.78125,751.9375 L 524.78125,756.96875 L 526.0625,756.96875 L 526.0625,754.8125 L 526.125,754.8125 C 526.24085,754.8125 526.35292,754.89942 526.46875,755.03125 C 526.5846,755.15909 526.72321,755.37588 526.875,755.6875 L 527.53125,756.96875 L 528.90625,756.96875 L 528.21875,755.625 C 528.10289,755.3933 527.98758,755.19103 527.84375,755.03125 C 527.70392,754.87146 527.53876,754.77537 527.375,754.6875 C 527.75851,754.61959 528.07352,754.47375 528.28125,754.25 C 528.49297,754.02629 528.59373,753.71856 528.59375,753.375 C 528.59374,752.89162 528.41006,752.54823 528.0625,752.3125 C 527.71493,752.07281 527.20309,751.93748 526.5,751.9375 L 524.78125,751.9375 z M 526.0625,752.78125 L 526.28125,752.78125 C 526.60084,752.78126 526.81696,752.83763 526.96875,752.9375 C 527.12455,753.03738 527.21877,753.16726 527.21875,753.375 C 527.21874,753.58274 527.12855,753.73589 526.96875,753.84375 C 526.81294,753.94762 526.59286,753.99999 526.28125,754 L 526.0625,754 L 526.0625,752.78125 z"
         style="fill:#f91d0a;fill-opacity:1;fill-rule:evenodd;stroke:none;stroke-width:1px;stroke-linecap:butt;stroke-linejoin:miter;stroke-opacity:1" />
    </g>
  </g>
</svg>
