<svg xmlns="http://www.w3.org/2000/svg" width="35.162" height="34.903" viewBox="23.09 10.573 35.162 34.903" enable-background="new 23.09 10.573 35.162 34.903"><path fill="#2C572A" d="M32.464 23.189c-.5 1.446.744 2.284 1.67 1.844 1.458-.699.126-3.36-1.67-1.844z"/><path fill="#2C572A" d="M39.839 23.995c.042 1.448 2.807 1.806 2.382-.637-.829-1.097-2.414-.476-2.382.637z"/><path fill="#2C572A" d="M29.062 22.573c.957-1.372.392-3.034 1.866-3.883l-.166-.194c-.743-.257-1.535-.239-2.246.015.689-4.054 4.207-7.142 8.457-7.142 4.267 0 7.798 3.117 8.465 7.197-.535-.07-1.085-.024-1.61.152l-.148.121c1.227 1.082.997 2.479 1.985 3.853.44.61 1.067 1.169 1.749 1.606.919-1.067 1.33-2.849.558-4.111-.417-.683-1.048-1.17-1.758-1.432-.522-4.605-4.436-8.184-9.178-8.184-4.778 0-8.706 3.622-9.187 8.269-.438.278-.817.655-1.099 1.127-.746 1.262-.575 2.813.313 3.878.66-.436 1.576-.661 1.999-1.272z"/><path fill="#2C572A" d="M47.044 36.35c1.338-3.296 2.891-6.765 1.141-10.47-.369-.794-1.134-1.318-1.873-1.885-1.275 1.302-2.023 3.73-1.817 6.445.193 2.576 1.204 4.762 2.549 5.91z"/><path fill="#2C572A" d="M27.656 37.431c1.369-1.126 2.417-3.296 2.657-5.87.327-3.519-.964-6.577-2.96-7.33-.109.076-.209.161-.299.259-.771.86-1.013 2.494-1.146 3.721-.334 3.143.719 6.515 1.748 9.22z"/><path fill="#2C572A" d="M56.662 36.301c-2.457 2.11-7.227 3.191-11.755 2.223.261-.651.569-1.308.895-1.969-1.06-1.396-1.735-3.526-1.735-5.926 0-2.847.951-5.321 2.359-6.63-.568-.503-1.153-1.015-1.519-1.681-.688-1.262-.584-2.773-1.748-3.653.815-.297 1.095-1.132 1.587-1.747-4.67.896-10.463.625-15.409.158.35.921 1.56.983 2.064 1.748-1.509.867-.928 2.565-1.903 3.972-.484.694-1.596.897-2.27 1.461 2.058.565 3.629 3.49 3.629 7.024 0 2.585-.848 4.842-2.103 6.092.257.516.504 1.011.742 1.47-2.281.411-4.342.074-6.407.078v4.877c2.149-.298 4.387-.148 6.247-.509.664-.13 1.384-.918 2.064-.796.825.148.832 1.046 1.272 1.43 1.103-.374 1.249.752 2.064 1.113 2.683 1.19 6.02-.293 7.783-1.431.365-.381.262-1.225.637-1.587 2.004-.406 4.124.019 6.267.001.349-.118.725-.201 1.132-.24.227-.083.462-.157.716-.206l-.011-.032c1.324-.106 3.495-1.632 5.084-2.697l1.906-1.908c-.397-.344-1.271-.207-1.588-.635zm-23.827 5.083c-.843.048-.341-1.248-.479-1.906 1.013-.061.896 1.381.479 1.906zm1.745.478c-.73-.432-.608-1.721-.952-2.542 1.06.141 1.274 1.486.952 2.542zm-3.972-19.383c.377-.772 1.063-1.4 2.542-1.59 2.021-.256 3.762.979 3.654 3.336-.241 5.295-8.397 2.775-6.196-1.746zm4.927 19.542c.376-1.071-.22-1.963-.479-2.859 1.551.455 1.527 2.324.479 2.859zm1.806-13.555c-.68-.182-.81-1.729-.375-2.174 1.127.485.497 1.387.375 2.174zm2.322 13.396c-.898.434-.727-2.023-.313-2.542.182-.026.278.035.313.158.561.68-.486 1.787 0 2.384zm1.433.476c-1.007-.369-.813-2.791.156-3.02.436.27-.534 1.759-.156 3.02zm1.269-1.113c-.638.624-.405-1.805-.129-2.118.213 0 .423-.192.448.371.128.716-.633 1.371-.319 1.747zm-1.906-13.979c-3.193-.472-3.723-5.783.159-6.356 4.782-.706 4.831 7.09-.159 6.356z"/><path fill="#2C572A" d="M64.607 42.656"/></svg>