<?xml version="1.0" encoding="utf-8"?>
<!-- Generator: Adobe Illustrator 16.0.0, SVG Export Plug-In . SVG Version: 6.00 Build 0)  -->
<!DOCTYPE svg PUBLIC "-//W3C//DTD SVG 1.1//EN" "http://www.w3.org/Graphics/SVG/1.1/DTD/svg11.dtd">
<svg version="1.1" id="Layer_1" xmlns="http://www.w3.org/2000/svg" xmlns:xlink="http://www.w3.org/1999/xlink" x="0px" y="0px"
	 width="35.162px" height="34.903px" viewBox="23.09 10.573 35.162 34.903" enable-background="new 23.09 10.573 35.162 34.903"
	 xml:space="preserve">
<path fill="#2C572A" d="M32.464,23.189c-0.5,1.446,0.744,2.284,1.67,1.844C35.592,24.334,34.26,21.673,32.464,23.189z"/>
<path fill="#2C572A" d="M39.839,23.995c0.042,1.448,2.807,1.806,2.382-0.637C41.392,22.261,39.807,22.882,39.839,23.995z"/>
<path fill="#2C572A" d="M29.062,22.573c0.957-1.372,0.392-3.034,1.866-3.883c-0.052-0.072-0.108-0.133-0.166-0.194
	c-0.743-0.257-1.535-0.239-2.246,0.015c0.689-4.054,4.207-7.142,8.457-7.142c4.267,0,7.798,3.117,8.465,7.197
	c-0.535-0.07-1.085-0.024-1.61,0.152c-0.063,0.062-0.104,0.049-0.148,0.121c1.227,1.082,0.997,2.479,1.985,3.853
	c0.44,0.61,1.067,1.169,1.749,1.606c0.919-1.067,1.33-2.849,0.558-4.111c-0.417-0.683-1.048-1.17-1.758-1.432
	c-0.522-4.605-4.436-8.184-9.178-8.184c-4.778,0-8.706,3.622-9.187,8.269c-0.438,0.278-0.817,0.655-1.099,1.127
	c-0.746,1.262-0.575,2.813,0.313,3.878C27.723,23.409,28.639,23.184,29.062,22.573z"/>
<path fill="#2C572A" d="M47.044,36.35c1.338-3.296,2.891-6.765,1.141-10.47c-0.369-0.794-1.134-1.318-1.873-1.885
	c-1.275,1.302-2.023,3.73-1.817,6.445C44.688,33.016,45.699,35.202,47.044,36.35z"/>
<path fill="#2C572A" d="M27.656,37.431c1.369-1.126,2.417-3.296,2.657-5.87c0.327-3.519-0.964-6.577-2.96-7.33
	c-0.109,0.076-0.209,0.161-0.299,0.259c-0.771,0.86-1.013,2.494-1.146,3.721C25.574,31.354,26.627,34.726,27.656,37.431z"/>
<path fill="#2C572A" d="M56.662,36.301c-2.457,2.11-7.227,3.191-11.755,2.223c0.261-0.651,0.569-1.308,0.895-1.969
	c-1.06-1.396-1.735-3.526-1.735-5.926c0-2.847,0.951-5.321,2.359-6.63c-0.568-0.503-1.153-1.015-1.519-1.681
	c-0.688-1.262-0.584-2.773-1.748-3.653c0.815-0.297,1.095-1.132,1.587-1.747c-4.67,0.896-10.463,0.625-15.409,0.158
	c0.35,0.921,1.56,0.983,2.064,1.748c-1.509,0.867-0.928,2.565-1.903,3.972c-0.484,0.694-1.596,0.897-2.27,1.461
	c2.058,0.565,3.629,3.49,3.629,7.024c0,2.585-0.848,4.842-2.103,6.092c0.257,0.516,0.504,1.011,0.742,1.47
	c-2.281,0.411-4.342,0.074-6.407,0.078v4.877c2.149-0.298,4.387-0.148,6.247-0.509c0.664-0.13,1.384-0.918,2.064-0.796
	c0.825,0.148,0.832,1.046,1.272,1.43c1.103-0.374,1.249,0.752,2.064,1.113c2.683,1.19,6.02-0.293,7.783-1.431
	c0.365-0.381,0.262-1.225,0.637-1.587c2.004-0.406,4.124,0.019,6.267,0.001c0.349-0.118,0.725-0.201,1.132-0.24
	c0.227-0.083,0.462-0.157,0.716-0.206c-0.004-0.011-0.008-0.021-0.011-0.032c1.324-0.106,3.495-1.632,5.084-2.697l1.906-1.908
	C57.853,36.592,56.979,36.729,56.662,36.301z M32.835,41.384c-0.843,0.048-0.341-1.248-0.479-1.906
	C33.369,39.417,33.252,40.859,32.835,41.384z M34.58,41.862c-0.73-0.432-0.608-1.721-0.952-2.542
	C34.688,39.461,34.902,40.806,34.58,41.862z M30.608,22.479c0.377-0.772,1.063-1.4,2.542-1.59c2.021-0.256,3.762,0.979,3.654,3.336
	C36.563,29.52,28.407,27,30.608,22.479z M35.535,42.021c0.376-1.071-0.22-1.963-0.479-2.859
	C36.607,39.617,36.583,41.486,35.535,42.021z M37.341,28.466c-0.68-0.182-0.81-1.729-0.375-2.174
	C38.093,26.777,37.463,27.679,37.341,28.466z M39.663,41.862c-0.898,0.434-0.727-2.023-0.313-2.542
	c0.182-0.026,0.278,0.035,0.313,0.158C40.224,40.158,39.177,41.265,39.663,41.862z M41.096,42.338
	c-1.007-0.369-0.813-2.791,0.156-3.02C41.688,39.588,40.718,41.077,41.096,42.338z M42.365,41.225
	c-0.638,0.624-0.405-1.805-0.129-2.118c0.213,0,0.423-0.192,0.448,0.371C42.812,40.194,42.051,40.849,42.365,41.225z M40.459,27.246
	c-3.193-0.472-3.723-5.783,0.159-6.356C45.4,20.184,45.449,27.98,40.459,27.246z"/>
<path fill="#2C572A" d="M64.607,42.656"/>
</svg>
