<?xml version="1.0" encoding="utf-8"?>
<!-- Generator: Adobe Illustrator 17.1.0, SVG Export Plug-In . SVG Version: 6.00 Build 0)  -->
<!DOCTYPE svg PUBLIC "-//W3C//DTD SVG 1.1//EN" "http://www.w3.org/Graphics/SVG/1.1/DTD/svg11.dtd">
<svg version="1.1" id="Layer_1" xmlns="http://www.w3.org/2000/svg" xmlns:xlink="http://www.w3.org/1999/xlink" x="0px" y="0px"
	 viewBox="5.9 5.9 14.2 14.2" enable-background="new 5.9 5.9 14.2 14.2" xml:space="preserve">
<path fill="#336699" d="M19.2,5.9H6.8c-0.5,0-0.9,0.4-0.9,0.9v12.4c0,0.5,0.4,0.9,0.9,0.9h12.4c0.5,0,0.9-0.4,0.9-0.9V6.8
	C20.1,6.3,19.7,5.9,19.2,5.9z M17.7,14.6c0.3,0.3,0.8,0.7,0.7,1.2c-0.1,0.4-0.7,0.3-1.3,0.3c-0.7,0-1.1,0-1.5-0.3
	c-0.2-0.2-0.3-0.3-0.5-0.6c-0.2-0.2-0.4-0.5-0.7-0.5c-0.5,0-0.4,0.8-0.5,1.2c-2.9,0.5-4.1-1.3-5.1-3.1c-0.5-0.8-1.2-2.6-1.2-2.6l2,0
	c0,0,0.7,1.2,0.8,1.5c0.1,0.3,0.3,0.5,0.5,0.7c0.1,0.2,0.4,0.6,0.6,0.5c0.4-0.1,0.5-1.6,0.2-2.1c-0.1-0.2-0.3-0.3-0.6-0.4
	c0.1-0.5,2.3-0.6,2.7-0.2c0.5,0.6-0.4,2.2,0.4,2.7c1-0.5,1.9-2.7,1.9-2.7l2.4,0c0,0-0.4,1.2-0.8,1.7c-0.2,0.3-1,1-1,1.5
	C16.7,13.8,17.4,14.2,17.7,14.6z"/>
</svg>
