<svg xmlns="http://www.w3.org/2000/svg" viewBox="5.9 5.9 14.2 14.2" enable-background="new 5.9 5.9 14.2 14.2"><path fill="#369" d="M19.2 5.9h-12.4c-.5 0-.9.4-.9.9v12.4c0 .5.4.9.9.9h12.4c.5 0 .9-.4.9-.9v-12.4c0-.5-.4-.9-.9-.9zm-1.5 8.7c.3.3.8.7.7 1.2-.1.4-.7.3-1.3.3-.7 0-1.1 0-1.5-.3-.2-.2-.3-.3-.5-.6-.2-.2-.4-.5-.7-.5-.5 0-.4.8-.5 1.2-2.9.5-4.1-1.3-5.1-3.1-.5-.8-1.2-2.6-1.2-2.6h2s.7 1.2.8 1.5c.1.3.3.5.5.7.1.2.4.6.6.5.4-.1.5-1.6.2-2.1-.1-.2-.3-.3-.6-.4.1-.5 2.3-.6 2.7-.2.5.6-.4 2.2.4 2.7 1-.5 1.9-2.7 1.9-2.7h2.4s-.4 1.2-.8 1.7c-.2.3-1 1-1 1.5 0 .4.7.8 1 1.2z"/></svg>