<?xml version="1.0" encoding="UTF-8" standalone="no"?>
<!-- Created with Inkscape (http://www.inkscape.org/) -->

<svg xmlns:dc="http://purl.org/dc/elements/1.1/" xmlns:cc="http://creativecommons.org/ns#" xmlns:rdf="http://www.w3.org/1999/02/22-rdf-syntax-ns#" xmlns:svg="http://www.w3.org/2000/svg" xmlns="http://www.w3.org/2000/svg" version="1.1" width="647.14087" height="678.57227" id="svg3763" xml:space="preserve"><metadata id="metadata3769"><rdf:RDF><cc:Work rdf:about=""><dc:format>image/svg+xml</dc:format><dc:type rdf:resource="http://purl.org/dc/dcmitype/StillImage" /><dc:title></dc:title></cc:Work></rdf:RDF></metadata><defs id="defs3767" /><g transform="matrix(1.25,0,0,-1.25,-77.858071,905.00271)" id="g3771"><g id="g3773"><path d="m 302.488,456.351 109.942,0 0,-144.094 c -4.992,-3.746 -10.996,-7.18 -18.012,-10.297 -7.016,-3.121 -14.504,-5.773 -22.457,-7.953 -7.957,-2.184 -16.223,-3.816 -24.797,-4.91 -8.578,-1.09 -16.918,-1.637 -25.027,-1.637 -20.899,0 -40.082,3.352 -57.547,10.059 -17.469,6.703 -32.598,16.996 -45.383,30.875 -12.789,13.879 -22.769,31.5 -29.941,52.867 -7.176,21.363 -10.762,46.551 -10.758,75.558 -0.004,30.254 4.363,56.141 13.097,77.665 8.731,21.519 20.114,39.062 34.153,52.632 14.031,13.563 29.785,23.465 47.254,29.707 17.465,6.235 34.929,9.356 52.398,9.356 18.715,0 34.156,-1.016 46.32,-3.043 12.165,-2.027 22.454,-4.754 30.875,-8.184 l -9.824,-34.621 c -14.972,7.485 -36.336,11.231 -64.093,11.231 -13.102,0 -26.125,-2.262 -39.067,-6.786 -12.945,-4.523 -24.562,-12.089 -34.855,-22.691 -10.293,-10.609 -18.715,-24.488 -25.262,-41.641 -6.551,-17.156 -9.824,-38.363 -9.824,-63.625 0,-23.082 2.64,-43.046 7.929,-59.886 5.286,-16.844 12.672,-30.801 22.157,-41.871 9.48,-11.075 20.91,-19.336 34.285,-24.793 13.371,-5.461 27.984,-8.192 43.847,-8.188 19.899,-0.004 36.848,3.895 50.848,11.695 l 0,91.231 -76.258,9.355 0,21.989 z" id="path3775" style="fill:#000000;fill-opacity:1;fill-rule:nonzero;stroke:none" /><g transform="matrix(0.962328,0,0,-1,0,841.88977)" id="g3777"><path d="m 584.021,389.316 c 0,139.977 -112.066,253.45 -250.305,253.45 -138.243,0 -250.308,-113.473 -250.308,-253.45 0,-139.972 112.065,-253.449 250.308,-253.449 138.239,0 250.305,113.477 250.305,253.449 z" id="path3779" style="fill:none;stroke:#000000;stroke-width:36.65587234;stroke-linecap:butt;stroke-linejoin:miter;stroke-miterlimit:4;stroke-opacity:1;stroke-dasharray:none" /></g></g></g></svg>