<?xml version="1.0" encoding="UTF-8" standalone="no"?>
<!-- Generator: Adobe Illustrator 14.0.0, SVG Export Plug-In . SVG Version: 6.00 Build 43363)  -->

<svg xmlns:dc="http://purl.org/dc/elements/1.1/" xmlns:cc="http://creativecommons.org/ns#" xmlns:rdf="http://www.w3.org/1999/02/22-rdf-syntax-ns#" xmlns:svg="http://www.w3.org/2000/svg" xmlns="http://www.w3.org/2000/svg" xmlns:sodipodi="http://sodipodi.sourceforge.net/DTD/sodipodi-0.dtd" xmlns:inkscape="http://www.inkscape.org/namespaces/inkscape" version="1.2" id="Layer_1" x="0px" y="0px" width="422.88898" height="821.27972" viewBox="0 0 422.88897 821.27973" xml:space="preserve" inkscape:version="0.48.1 " sodipodi:docname="TourEiffel.svg"><metadata id="metadata429"><rdf:RDF><cc:Work rdf:about=""><dc:format>image/svg+xml</dc:format><dc:type rdf:resource="http://purl.org/dc/dcmitype/StillImage" /></cc:Work></rdf:RDF></metadata><defs id="defs427" /><sodipodi:namedview pagecolor="#ffffff" bordercolor="#666666" borderopacity="1" objecttolerance="10" gridtolerance="10" guidetolerance="10" inkscape:pageopacity="0" inkscape:pageshadow="2" inkscape:window-width="1280" inkscape:window-height="975" id="namedview425" showgrid="false" fit-margin-top="0" fit-margin-left="0" fit-margin-right="0" fit-margin-bottom="0" inkscape:zoom="0.53744738" inkscape:cx="-95.567471" inkscape:cy="411.807" inkscape:window-x="-4" inkscape:window-y="-4" inkscape:window-maximized="1" inkscape:current-layer="Layer_1" />
<rect x="-821.27979" y="-1.3595585e-005" width="8.7370005" height="85.223" id="rect3" transform="matrix(0,-1,1,0,0,0)" />
<path d="m 210.88897,721.46675 c -59.778,-1.222 -121.777997,37.778 -132.325997,99.503" id="path5" inkscape:connector-curvature="0" style="fill:none;stroke:#000000;stroke-width:2" />
<path d="m 4.1109734,818.24475 c 44.6729996,-32.321 69.6989996,-77.183 89.9589996,-122.043 48.860997,-105.672 72.694997,-213.337 89.379997,-325.988 15.492,-111.653 23.834,-221.313 22.643,-331.969" id="path7" inkscape:connector-curvature="0" style="fill:none;stroke:#000000;stroke-width:2" />
<rect x="-821.27979" y="337.66595" width="8.7370005" height="85.223" id="rect9" transform="matrix(0,-1,1,0,0,0)" />
<path d="m 211.99997,721.46675 c 59.777,-1.222 121.777,37.778 132.326,99.503" id="path11" inkscape:connector-curvature="0" style="fill:none;stroke:#000000;stroke-width:2" />
<path d="m 418.77797,818.24475 c -44.674,-32.321 -69.699,-77.183 -89.959,-122.043 -48.861,-105.672 -72.695,-213.337 -89.381,-325.988 -15.492,-111.653 -23.834,-221.313 -22.643,-331.969" id="path13" inkscape:connector-curvature="0" style="fill:none;stroke:#000000;stroke-width:2" />
<rect x="-38.654739" y="202.11096" width="22.509001" height="18.438" id="rect15" transform="matrix(0,-1,1,0,0,0)" style="fill:none;stroke:#000000;stroke-width:2" />
<line x1="210.63898" y1="5.6987467" x2="210.63898" y2="16.22377" id="line17" style="fill:none;stroke:#000000;stroke-width:2" />
<circle cx="835.61401" cy="240.73599" r="2.8429999" id="circle19" sodipodi:cx="835.61401" sodipodi:cy="240.73599" sodipodi:rx="2.8429999" sodipodi:ry="2.8429999" transform="matrix(0,-1,1,0,-30.097027,839.46875)" style="fill:none;stroke:#000000;stroke-width:2" />
<rect x="-722.46381" y="210.88998" width="2.013" height="1.1799999" id="rect21" transform="matrix(0,-1,1,0,0,0)" />
<path d="m 154.32797,664.02375 c 14.815,-39.656 23.456,-81.421 29.751,-123.365 6.48,-43.177 11.853,-86.751 15.822,-130.255 4.061,-44.503 6.213,-89.162 7.923,-133.82 0.362,-9.444 0.705,-18.893 1.042,-28.339" id="path23" inkscape:connector-curvature="0" style="fill:none;stroke:#000000;stroke-width:2" />
<line x1="155.64099" y1="661.46375" x2="264.93198" y2="661.46375" id="line25" style="fill:none;stroke:#000000;stroke-width:2" />
<line x1="182.11096" y1="549.24475" x2="238.32999" y2="549.24475" id="line27" style="fill:none;stroke:#000000;stroke-width:2" />
<line x1="155.64099" y1="661.46375" x2="92.110962" y2="784.24481" id="line29" style="fill:none;stroke:#000000;stroke-width:2" />
<line x1="265.11099" y1="659.46375" x2="329.64099" y2="782.24481" id="line31" style="fill:none;stroke:#000000;stroke-width:2" />
<line x1="143.88898" y1="737.06879" x2="126.11096" y2="718.24481" id="line33" style="fill:none;stroke:#000000;stroke-width:2" />
<line x1="126.11096" y1="718.92181" x2="167.61697" y2="727.22278" id="line35" style="fill:none;stroke:#000000;stroke-width:2" />
<line x1="167.61697" y1="727.22278" x2="135.44998" y2="700.24481" id="line37" style="fill:none;stroke:#000000;stroke-width:2" />
<line x1="143.11096" y1="737.24481" x2="116.15796" y2="737.24481" id="line39" style="fill:none;stroke:#000000;stroke-width:2" />
<line x1="135.11096" y1="700.24481" x2="285.95599" y2="700.24481" id="line41" style="fill:none;stroke:#000000;stroke-width:2" />
<line x1="278.88498" y1="737.06879" x2="296.66296" y2="718.24481" id="line43" style="fill:none;stroke:#000000;stroke-width:2" />
<line x1="296.66296" y1="718.92181" x2="255.15799" y2="727.22278" id="line45" style="fill:none;stroke:#000000;stroke-width:2" />
<line x1="255.15799" y1="727.22278" x2="287.32397" y2="700.24481" id="line47" style="fill:none;stroke:#000000;stroke-width:2" />
<line x1="279.66299" y1="737.24481" x2="306.61694" y2="737.24481" id="line49" style="fill:none;stroke:#000000;stroke-width:2" />
<line x1="167.61697" y1="727.22278" x2="173.11096" y2="700.28076" id="line51" style="fill:none;stroke:#000000;stroke-width:2" />
<line x1="173.11096" y1="700.28076" x2="190.11096" y2="721.50879" id="line53" style="fill:none;stroke:#000000;stroke-width:2" />
<line x1="190.11096" y1="722.46777" x2="201.72897" y2="700.66577" id="line55" style="fill:none;stroke:#000000;stroke-width:2" />
<line x1="254.72897" y1="727.22278" x2="249.23499" y2="700.28076" id="line57" style="fill:none;stroke:#000000;stroke-width:2" />
<line x1="249.23499" y1="700.28076" x2="232.23499" y2="721.50879" id="line59" style="fill:none;stroke:#000000;stroke-width:2" />
<line x1="232.23499" y1="722.46777" x2="220.61697" y2="700.66577" id="line61" style="fill:none;stroke:#000000;stroke-width:2" />
<line x1="220.61697" y1="700.66577" x2="211.40399" y2="720.61877" id="line63" style="fill:none;stroke:#000000;stroke-width:2" />
<line x1="201.89597" y1="701.10876" x2="210.53998" y2="721.23676" id="line65" style="fill:none;stroke:#000000;stroke-width:2" />
<line x1="155.21896" y1="661.96375" x2="168.67899" y2="699.62677" id="line67" style="fill:none;stroke:#000000;stroke-width:2" />
<line x1="168.67899" y1="699.62677" x2="180.40897" y2="662.08777" id="line69" style="fill:none;stroke:#000000;stroke-width:2" />
<line x1="180.40897" y1="662.09174" x2="193.49799" y2="699.74982" id="line71" style="fill:none;stroke:#000000;stroke-width:2" />
<line x1="193.49799" y1="699.74982" x2="203.74799" y2="661.84076" id="line73" style="fill:none;stroke:#000000;stroke-width:2" />
<line x1="216.21896" y1="661.96375" x2="229.67899" y2="699.62677" id="line75" style="fill:none;stroke:#000000;stroke-width:2" />
<line x1="229.67899" y1="699.62677" x2="241.409" y2="662.08777" id="line77" style="fill:none;stroke:#000000;stroke-width:2" />
<line x1="241.409" y1="662.09174" x2="254.49799" y2="699.74982" id="line79" style="fill:none;stroke:#000000;stroke-width:2" />
<line x1="254.49799" y1="699.74982" x2="264.74799" y2="661.84076" id="line81" style="fill:none;stroke:#000000;stroke-width:2" />
<path d="m 264.74797,660.97575 c 0.018,0.354 -0.066,0.683 -0.247,0.988" id="path83" inkscape:connector-curvature="0" style="fill:none;stroke:#000000;stroke-width:2" />
<line x1="198.80997" y1="681.10376" x2="222.27197" y2="681.10376" id="line85" style="fill:none;stroke:#000000;stroke-width:2" />
<line x1="203.99597" y1="661.71674" x2="222.02496" y2="680.11578" id="line87" style="fill:none;stroke:#000000;stroke-width:2" />
<line x1="199.42697" y1="681.47375" x2="228.44598" y2="699.13281" id="line89" style="fill:none;stroke:#000000;stroke-width:2" />
<path d="m 268.11097,666.24475 c -15.384,-39.873 -24.356,-81.866 -30.894,-124.039 -6.729,-43.413 -12.309,-87.225 -16.43,-130.966 -4.216,-44.747 -6.451,-89.649 -8.228,-134.551 -0.376,-9.496 -0.731,-18.995 -1.082,-28.494" id="path91" inkscape:connector-curvature="0" style="fill:none;stroke:#000000;stroke-width:2" />
<line x1="197.52197" y1="249.05974" x2="224.46198" y2="249.05974" id="line93" style="fill:none;stroke:#000000;stroke-width:2" />
<line x1="210.11096" y1="548.24475" x2="210.11096" y2="249.05974" id="line95" style="fill:none;stroke:#000000;stroke-width:2" />
<line x1="204.31796" y1="347.45074" x2="209.11096" y2="356.24475" id="line97" style="fill:none;stroke:#000000;stroke-width:2" />
<line x1="209.11096" y1="356.24475" x2="203.11096" y2="373.24475" id="line99" style="fill:none;stroke:#000000;stroke-width:2" />
<line x1="203.11096" y1="373.24475" x2="209.11096" y2="383.24475" id="line101" style="fill:none;stroke:#000000;stroke-width:2" />
<line x1="209.15298" y1="383.24475" x2="200.52298" y2="405.24475" id="line103" style="fill:none;stroke:#000000;stroke-width:2" />
<line x1="200.52298" y1="405.24475" x2="210.11096" y2="420.24475" id="line105" style="fill:none;stroke:#000000;stroke-width:2" />
<line x1="210.11096" y1="420.24475" x2="197.11096" y2="438.24475" id="line107" style="fill:none;stroke:#000000;stroke-width:2" />
<line x1="197.11096" y1="438.24475" x2="210.11096" y2="442.24475" id="line109" style="fill:none;stroke:#000000;stroke-width:2" />
<line x1="210.11697" y1="442.24475" x2="194.75897" y2="459.24475" id="line111" style="fill:none;stroke:#000000;stroke-width:2" />
<line x1="194.87598" y1="459.24475" x2="210.17197" y2="467.24475" id="line113" style="fill:none;stroke:#000000;stroke-width:2" />
<line x1="210.17197" y1="467.24475" x2="192.11096" y2="480.24475" id="line115" style="fill:none;stroke:#000000;stroke-width:2" />
<line x1="192.47998" y1="480.24475" x2="210.20099" y2="488.24475" id="line117" style="fill:none;stroke:#000000;stroke-width:2" />
<line x1="210.06699" y1="488.24475" x2="190.08197" y2="499.24475" id="line119" style="fill:none;stroke:#000000;stroke-width:2" />
<line x1="190.08197" y1="499.24475" x2="209.11096" y2="515.24475" id="line121" style="fill:none;stroke:#000000;stroke-width:2" />
<line x1="209.09198" y1="515.24475" x2="186.35599" y2="525.24475" id="line123" style="fill:none;stroke:#000000;stroke-width:2" />
<line x1="186.66397" y1="525.24475" x2="209.34698" y2="536.24475" id="line125" style="fill:none;stroke:#000000;stroke-width:2" />
<line x1="209.34698" y1="536.24475" x2="182.45596" y2="549.24475" id="line127" style="fill:none;stroke:#000000;stroke-width:2" />
<line x1="209.14798" y1="548.84375" x2="185.51599" y2="536.42474" id="line129" style="fill:none;stroke:#000000;stroke-width:2" />
<line x1="185.51599" y1="536.42474" x2="209.66498" y2="523.83179" id="line131" style="fill:none;stroke:#000000;stroke-width:2" />
<line x1="209.66498" y1="523.83179" x2="188.79297" y2="511.23975" id="line133" style="fill:none;stroke:#000000;stroke-width:2" />
<line x1="188.79297" y1="511.23975" x2="209.31998" y2="500.37274" id="line135" style="fill:none;stroke:#000000;stroke-width:2" />
<line x1="209.31998" y1="500.37274" x2="191.55298" y2="487.26276" id="line137" style="fill:none;stroke:#000000;stroke-width:2" />
<line x1="191.55298" y1="487.26276" x2="209.31998" y2="477.77576" id="line139" style="fill:none;stroke:#000000;stroke-width:2" />
<line x1="209.31998" y1="477.77576" x2="193.79599" y2="467.42676" id="line141" style="fill:none;stroke:#000000;stroke-width:2" />
<line x1="193.79599" y1="467.42676" x2="209.83798" y2="455.17874" id="line143" style="fill:none;stroke:#000000;stroke-width:2" />
<line x1="209.83798" y1="455.17874" x2="195.86499" y2="446.20975" id="line145" style="fill:none;stroke:#000000;stroke-width:2" />
<line x1="196.21097" y1="446.20975" x2="209.66498" y2="431.54776" id="line147" style="fill:none;stroke:#000000;stroke-width:2" />
<line x1="209.66498" y1="431.54776" x2="199.31598" y2="421.88974" id="line149" style="fill:none;stroke:#000000;stroke-width:2" />
<line x1="198.62598" y1="422.06174" x2="209.83798" y2="400.84476" id="line151" style="fill:none;stroke:#000000;stroke-width:2" />
<line x1="209.83798" y1="400.84476" x2="202.07498" y2="387.21875" id="line153" style="fill:none;stroke:#000000;stroke-width:2" />
<line x1="202.07498" y1="387.21875" x2="209.49298" y2="369.62375" id="line155" style="fill:none;stroke:#000000;stroke-width:2" />
<line x1="208.97498" y1="370.14276" x2="203.97299" y2="358.06876" id="line157" style="fill:none;stroke:#000000;stroke-width:2" />
<line x1="203.97299" y1="358.06876" x2="210.35498" y2="344.09674" id="line159" style="fill:none;stroke:#000000;stroke-width:2" />
<line x1="215.84396" y1="347.23074" x2="211.04999" y2="356.02576" id="line161" style="fill:none;stroke:#000000;stroke-width:2" />
<line x1="211.04999" y1="356.02576" x2="217.04999" y2="373.02576" id="line163" style="fill:none;stroke:#000000;stroke-width:2" />
<line x1="217.04999" y1="373.02576" x2="211.04999" y2="383.02576" id="line165" style="fill:none;stroke:#000000;stroke-width:2" />
<line x1="211.00897" y1="383.02576" x2="219.63797" y2="405.02576" id="line167" style="fill:none;stroke:#000000;stroke-width:2" />
<line x1="219.63797" y1="405.02576" x2="210.04999" y2="420.02576" id="line169" style="fill:none;stroke:#000000;stroke-width:2" />
<line x1="210.04999" y1="420.02576" x2="223.04999" y2="438.02576" id="line171" style="fill:none;stroke:#000000;stroke-width:2" />
<line x1="223.04999" y1="438.02576" x2="210.04999" y2="442.02576" id="line173" style="fill:none;stroke:#000000;stroke-width:2" />
<line x1="210.04398" y1="442.02576" x2="225.40198" y2="459.02576" id="line175" style="fill:none;stroke:#000000;stroke-width:2" />
<line x1="225.28497" y1="459.02576" x2="209.98999" y2="467.02576" id="line177" style="fill:none;stroke:#000000;stroke-width:2" />
<line x1="209.98999" y1="467.02576" x2="228.04999" y2="480.02576" id="line179" style="fill:none;stroke:#000000;stroke-width:2" />
<line x1="227.68198" y1="480.02576" x2="209.95999" y2="488.02576" id="line181" style="fill:none;stroke:#000000;stroke-width:2" />
<line x1="210.09497" y1="488.02576" x2="230.07999" y2="499.02576" id="line183" style="fill:none;stroke:#000000;stroke-width:2" />
<line x1="230.07999" y1="499.02576" x2="211.04999" y2="515.02576" id="line185" style="fill:none;stroke:#000000;stroke-width:2" />
<line x1="211.06998" y1="515.02576" x2="233.806" y2="525.02576" id="line187" style="fill:none;stroke:#000000;stroke-width:2" />
<line x1="233.49698" y1="525.02576" x2="210.81396" y2="536.02576" id="line189" style="fill:none;stroke:#000000;stroke-width:2" />
<line x1="210.81396" y1="536.02576" x2="238.04999" y2="549.02576" id="line191" style="fill:none;stroke:#000000;stroke-width:2" />
<line x1="211.05096" y1="548.62476" x2="236.40198" y2="536.20477" id="line193" style="fill:none;stroke:#000000;stroke-width:2" />
<line x1="236.40198" y1="536.20477" x2="210.49597" y2="523.61279" id="line195" style="fill:none;stroke:#000000;stroke-width:2" />
<line x1="210.49597" y1="523.61279" x2="232.09" y2="511.02075" id="line197" style="fill:none;stroke:#000000;stroke-width:2" />
<line x1="232.09" y1="511.02075" x2="210.85297" y2="500.15375" id="line199" style="fill:none;stroke:#000000;stroke-width:2" />
<line x1="210.84097" y1="500.15375" x2="228.60797" y2="487.04376" id="line201" style="fill:none;stroke:#000000;stroke-width:2" />
<line x1="228.60797" y1="487.04376" x2="210.84097" y2="477.55676" id="line203" style="fill:none;stroke:#000000;stroke-width:2" />
<line x1="210.84097" y1="477.55676" x2="226.366" y2="467.20676" id="line205" style="fill:none;stroke:#000000;stroke-width:2" />
<line x1="226.366" y1="467.20676" x2="210.32397" y2="454.95975" id="line207" style="fill:none;stroke:#000000;stroke-width:2" />
<line x1="210.32397" y1="454.95975" x2="224.29599" y2="445.98975" id="line209" style="fill:none;stroke:#000000;stroke-width:2" />
<line x1="223.95099" y1="445.98975" x2="210.49597" y2="431.32776" id="line211" style="fill:none;stroke:#000000;stroke-width:2" />
<line x1="210.49597" y1="431.32776" x2="220.84598" y2="421.66974" id="line213" style="fill:none;stroke:#000000;stroke-width:2" />
<line x1="221.53598" y1="421.84274" x2="210.32397" y2="400.62576" id="line215" style="fill:none;stroke:#000000;stroke-width:2" />
<line x1="210.32397" y1="400.62576" x2="218.08597" y2="386.99875" id="line217" style="fill:none;stroke:#000000;stroke-width:2" />
<line x1="218.08597" y1="386.99875" x2="210.66898" y2="369.40475" id="line219" style="fill:none;stroke:#000000;stroke-width:2" />
<line x1="211.18597" y1="369.92474" x2="216.18896" y2="357.84976" id="line221" style="fill:none;stroke:#000000;stroke-width:2" />
<line x1="216.18896" y1="357.84976" x2="210.15097" y2="344.74075" id="line223" style="fill:none;stroke:#000000;stroke-width:2" />
<line x1="79.576965" y1="815.82477" x2="52.166992" y2="770.57977" id="line225" style="fill:none;stroke:#000000;stroke-width:2" />
<line x1="52.110962" y1="770.24481" x2="115.11096" y2="737.24481" id="line227" style="fill:none;stroke:#000000;stroke-width:2" />
<line x1="115.11096" y1="737.24481" x2="104.11096" y2="673.24475" id="line229" style="fill:none;stroke:#000000;stroke-width:2" />
<line x1="104.44196" y1="672.24475" x2="157.11096" y2="656.57477" id="line231" style="fill:none;stroke:#000000;stroke-width:2" />
<line x1="156.11096" y1="656.24475" x2="136.11096" y2="589.24475" id="line233" style="fill:none;stroke:#000000;stroke-width:2" />
<line x1="136.11096" y1="589.24475" x2="181.62497" y2="555.25677" id="line235" style="fill:none;stroke:#000000;stroke-width:2" />
<line x1="181.11096" y1="555.24475" x2="160.11096" y2="498.24475" id="line237" style="fill:none;stroke:#000000;stroke-width:2" />
<line x1="160.11096" y1="498.24475" x2="194.11096" y2="462.24475" id="line239" style="fill:none;stroke:#000000;stroke-width:2" />
<line x1="193.11096" y1="462.24475" x2="177.33197" y2="411.26776" id="line241" style="fill:none;stroke:#000000;stroke-width:2" />
<line x1="12.110949" y1="812.24481" x2="97.110962" y2="776.24481" id="line243" style="fill:none;stroke:#000000;stroke-width:2" />
<line x1="97.110962" y1="776.24481" x2="82.110962" y2="721.24481" id="line245" style="fill:none;stroke:#000000;stroke-width:2" />
<line x1="82.110962" y1="721.24481" x2="138.11096" y2="693.24481" id="line247" style="fill:none;stroke:#000000;stroke-width:2" />
<line x1="138.11096" y1="693.24481" x2="120.52795" y2="631.54474" id="line249" style="fill:none;stroke:#000000;stroke-width:2" />
<line x1="121.42395" y1="632.24475" x2="172.37799" y2="603.47278" id="line251" style="fill:none;stroke:#000000;stroke-width:2" />
<line x1="172.11096" y1="603.24475" x2="147.60898" y2="546.66974" id="line253" style="fill:none;stroke:#000000;stroke-width:2" />
<line x1="148.26999" y1="547.99176" x2="189.11096" y2="504.24475" id="line255" style="fill:none;stroke:#000000;stroke-width:2" />
<line x1="189.11096" y1="504.24475" x2="168.41498" y2="457.50275" id="line257" style="fill:none;stroke:#000000;stroke-width:2" />
<line x1="169.07498" y1="459.15475" x2="198.62598" y2="422.06174" id="line259" style="fill:none;stroke:#000000;stroke-width:2" />
<line x1="198.16699" y1="421.66776" x2="181.29498" y2="384.85175" id="line261" style="fill:none;stroke:#000000;stroke-width:2" />
<line x1="181.29498" y1="384.85175" x2="202.43097" y2="361.73474" id="line263" style="fill:none;stroke:#000000;stroke-width:2" />
<line x1="202.43097" y1="361.73474" x2="189.55096" y2="329.37076" id="line265" style="fill:none;stroke:#000000;stroke-width:2" />
<line x1="189.55096" y1="329.37076" x2="205.40298" y2="307.90375" id="line267" style="fill:none;stroke:#000000;stroke-width:2" />
<line x1="205.40298" y1="307.90375" x2="193.84396" y2="283.79578" id="line269" style="fill:none;stroke:#000000;stroke-width:2" />
<line x1="193.84396" y1="283.79578" x2="207.71497" y2="268.60376" id="line271" style="fill:none;stroke:#000000;stroke-width:2" />
<line x1="207.71497" y1="268.60376" x2="197.47699" y2="248.12871" id="line273" style="fill:none;stroke:#000000;stroke-width:2" />
<line x1="177.33197" y1="411.26776" x2="201.10999" y2="387.16275" id="line275" style="fill:none;stroke:#000000;stroke-width:2" />
<line x1="201.23596" y1="387.16275" x2="185.35999" y2="358.09976" id="line277" style="fill:none;stroke:#000000;stroke-width:2" />
<line x1="185.35999" y1="358.09976" x2="204.41199" y2="334.32275" id="line279" style="fill:none;stroke:#000000;stroke-width:2" />
<line x1="204.74197" y1="334.33176" x2="191.86197" y2="305.26874" id="line281" style="fill:none;stroke:#000000;stroke-width:2" />
<line x1="191.86197" y1="304.26874" x2="207.05399" y2="284.12476" id="line283" style="fill:none;stroke:#000000;stroke-width:2" />
<line x1="207.05399" y1="284.12476" x2="195.82599" y2="264.63873" id="line285" style="fill:none;stroke:#000000;stroke-width:2" />
<line x1="196.48596" y1="266.29077" x2="208.20596" y2="248.57475" id="line287" style="fill:none;stroke:#000000;stroke-width:2" />
<line x1="412.04498" y1="813.19678" x2="318.58295" y2="760.93378" id="line289" style="fill:none;stroke:#000000;stroke-width:2" />
<line x1="318.58295" y1="760.93378" x2="325.44897" y2="689.2168" id="line291" style="fill:none;stroke:#000000;stroke-width:2" />
<line x1="325.44897" y1="689.2168" x2="272.42398" y2="673.95679" id="line293" style="fill:none;stroke:#000000;stroke-width:2" />
<line x1="272.42398" y1="673.95679" x2="292.26099" y2="604.90979" id="line295" style="fill:none;stroke:#000000;stroke-width:2" />
<line x1="292.26099" y1="604.90979" x2="240.76199" y2="562.56677" id="line297" style="fill:none;stroke:#000000;stroke-width:2" />
<line x1="240.76199" y1="562.56677" x2="269.12299" y2="525.94476" id="line299" style="fill:none;stroke:#000000;stroke-width:2" />
<line x1="268.60999" y1="525.94476" x2="230.84399" y2="491.99475" id="line301" style="fill:none;stroke:#000000;stroke-width:2" />
<line x1="230.84399" y1="491.99475" x2="249.53598" y2="436.29974" id="line303" style="fill:none;stroke:#000000;stroke-width:2" />
<line x1="249.53598" y1="436.29974" x2="222.06998" y2="421.04175" id="line305" style="fill:none;stroke:#000000;stroke-width:2" />
<line x1="222.06998" y1="421.04175" x2="240.76199" y2="387.47174" id="line307" style="fill:none;stroke:#000000;stroke-width:2" />
<line x1="241.90698" y1="387.09274" x2="218.63696" y2="374.88376" id="line309" style="fill:none;stroke:#000000;stroke-width:2" />
<line x1="218.63696" y1="374.88376" x2="236.948" y2="352.75876" id="line311" style="fill:none;stroke:#000000;stroke-width:2" />
<line x1="236.948" y1="352.75876" x2="215.20398" y2="336.35574" id="line313" style="fill:none;stroke:#000000;stroke-width:2" />
<line x1="215.20398" y1="336.35574" x2="230.84399" y2="312.70477" id="line315" style="fill:none;stroke:#000000;stroke-width:2" />
<line x1="230.84399" y1="312.70477" x2="214.44098" y2="301.26074" id="line317" style="fill:none;stroke:#000000;stroke-width:2" />
<line x1="214.44098" y1="301.26074" x2="229.69998" y2="287.90875" id="line319" style="fill:none;stroke:#000000;stroke-width:2" />
<line x1="229.69998" y1="287.90875" x2="213.29599" y2="279.89777" id="line321" style="fill:none;stroke:#000000;stroke-width:2" />
<line x1="213.29599" y1="279.89777" x2="227.02899" y2="266.54675" id="line323" style="fill:none;stroke:#000000;stroke-width:2" />
<line x1="227.02899" y1="266.54675" x2="212.53299" y2="260.82373" id="line325" style="fill:none;stroke:#000000;stroke-width:2" />
<line x1="212.53299" y1="260.82373" x2="225.12198" y2="247.85374" id="line327" style="fill:none;stroke:#000000;stroke-width:2" />
<line x1="342.23499" y1="813.57776" x2="362.83398" y2="760.93378" id="line329" style="fill:none;stroke:#000000;stroke-width:2" />
<line x1="362.83398" y1="760.93378" x2="295.31396" y2="717.82678" id="line331" style="fill:none;stroke:#000000;stroke-width:2" />
<line x1="295.31396" y1="717.82678" x2="308.28296" y2="651.45074" id="line333" style="fill:none;stroke:#000000;stroke-width:2" />
<line x1="308.28296" y1="651.45074" x2="254.11398" y2="620.93274" id="line335" style="fill:none;stroke:#000000;stroke-width:2" />
<line x1="254.11398" y1="620.93274" x2="280.05499" y2="566.76276" id="line337" style="fill:none;stroke:#000000;stroke-width:2" />
<line x1="279.29099" y1="567.14478" x2="234.27798" y2="526.32678" id="line339" style="fill:none;stroke:#000000;stroke-width:2" />
<line x1="234.27798" y1="526.32678" x2="257.92899" y2="476.73676" id="line341" style="fill:none;stroke:#000000;stroke-width:2" />
<line x1="257.92899" y1="476.73676" x2="224.73999" y2="451.17776" id="line343" style="fill:none;stroke:#000000;stroke-width:2" />
<line x1="224.73999" y1="451.17776" x2="244.19598" y2="410.36075" id="line345" style="fill:none;stroke:#000000;stroke-width:2" />
<line x1="244.19598" y1="410.36075" x2="219.01797" y2="394.71976" id="line347" style="fill:none;stroke:#000000;stroke-width:2" />
<line x1="218.63696" y1="395.86374" x2="238.09198" y2="367.25375" id="line349" style="fill:none;stroke:#000000;stroke-width:2" />
<line x1="238.09198" y1="367.25375" x2="215.58499" y2="351.99576" id="line351" style="fill:none;stroke:#000000;stroke-width:2" />
<line x1="215.58499" y1="351.99576" x2="233.133" y2="326.81873" id="line353" style="fill:none;stroke:#000000;stroke-width:2" />
<line x1="233.133" y1="326.81873" x2="214.82199" y2="318.80774" id="line355" style="fill:none;stroke:#000000;stroke-width:2" />
<line x1="214.82199" y1="318.80774" x2="229.31799" y2="298.20776" id="line357" style="fill:none;stroke:#000000;stroke-width:2" />
<line x1="229.31799" y1="298.20776" x2="213.67798" y2="289.81573" id="line359" style="fill:none;stroke:#000000;stroke-width:2" />
<line x1="213.67798" y1="289.81573" x2="227.02899" y2="276.08276" id="line361" style="fill:none;stroke:#000000;stroke-width:2" />
<line x1="227.02899" y1="276.08276" x2="212.91498" y2="269.59674" id="line363" style="fill:none;stroke:#000000;stroke-width:2" />
<line x1="212.91498" y1="269.59674" x2="224.35898" y2="257.00873" id="line365" style="fill:none;stroke:#000000;stroke-width:2" />
<line x1="225.35898" y1="257.00873" x2="211.87097" y2="248.66972" id="line367" style="fill:none;stroke:#000000;stroke-width:2" />
<line x1="197.44699" y1="249.68974" x2="222.09497" y2="219.50871" id="line369" style="fill:none;stroke:#000000;stroke-width:2" />
<line x1="222.09497" y1="219.50871" x2="201.47098" y2="197.87975" id="line371" style="fill:none;stroke:#000000;stroke-width:2" />
<line x1="201.47098" y1="197.87975" x2="219.07599" y2="177.75871" id="line373" style="fill:none;stroke:#000000;stroke-width:2" />
<line x1="219.07599" y1="177.75871" x2="203.98596" y2="161.15874" id="line375" style="fill:none;stroke:#000000;stroke-width:2" />
<line x1="203.98596" y1="161.15874" x2="218.57297" y2="145.06175" id="line377" style="fill:none;stroke:#000000;stroke-width:2" />
<line x1="218.57297" y1="145.06175" x2="204.68799" y2="132.98976" id="line379" style="fill:none;stroke:#000000;stroke-width:2" />
<line x1="204.68799" y1="132.98976" x2="216.65799" y2="116.89278" id="line381" style="fill:none;stroke:#000000;stroke-width:2" />
<line x1="216.56198" y1="116.89278" x2="205.99799" y2="99.287735" id="line383" style="fill:none;stroke:#000000;stroke-width:2" />
<line x1="205.99799" y1="99.287735" x2="216.05798" y2="88.220779" id="line385" style="fill:none;stroke:#000000;stroke-width:2" />
<line x1="216.05798" y1="88.220779" x2="205.99799" y2="75.645767" id="line387" style="fill:none;stroke:#000000;stroke-width:2" />
<line x1="205.99799" y1="75.645767" x2="216.14697" y2="66.08876" id="line389" style="fill:none;stroke:#000000;stroke-width:2" />
<line x1="216.19699" y1="66.08876" x2="206.53198" y2="55.524796" id="line391" style="fill:none;stroke:#000000;stroke-width:2" />
<line x1="206.50098" y1="55.524796" x2="216.05798" y2="46.972786" id="line393" style="fill:none;stroke:#000000;stroke-width:2" />
<line x1="216.05798" y1="46.972786" x2="205.90799" y2="38.672745" id="line395" style="fill:none;stroke:#000000;stroke-width:2" />
<line x1="225.45197" y1="249.84074" x2="200.85199" y2="219.40874" id="line397" style="fill:none;stroke:#000000;stroke-width:2" />
<line x1="200.85199" y1="219.40874" x2="221.26398" y2="197.24474" id="line399" style="fill:none;stroke:#000000;stroke-width:2" />
<line x1="221.34396" y1="197.87975" x2="203.21896" y2="177.75871" id="line401" style="fill:none;stroke:#000000;stroke-width:2" />
<line x1="203.35098" y1="177.75871" x2="219.43698" y2="161.15874" id="line403" style="fill:none;stroke:#000000;stroke-width:2" />
<line x1="219.55496" y1="161.15874" x2="204.96799" y2="145.06175" id="line405" style="fill:none;stroke:#000000;stroke-width:2" />
<line x1="204.96799" y1="145.06175" x2="218.15298" y2="132.98976" id="line407" style="fill:none;stroke:#000000;stroke-width:2" />
<line x1="218.15298" y1="132.98976" x2="205.13599" y2="116.89278" id="line409" style="fill:none;stroke:#000000;stroke-width:2" />
<line x1="205.35797" y1="116.89278" x2="216.87897" y2="99.287735" id="line411" style="fill:none;stroke:#000000;stroke-width:2" />
<line x1="217.03998" y1="99.287735" x2="207.08197" y2="88.220779" id="line413" style="fill:none;stroke:#000000;stroke-width:2" />
<line x1="206.58398" y1="88.220779" x2="216.54297" y2="75.645767" id="line415" style="fill:none;stroke:#000000;stroke-width:2" />
<line x1="216.56198" y1="75.645767" x2="207.45898" y2="66.08876" id="line417" style="fill:none;stroke:#000000;stroke-width:2" />
<line x1="205.95099" y1="66.591751" x2="216.56198" y2="55.524796" id="line419" style="fill:none;stroke:#000000;stroke-width:2" />
<line x1="216.45099" y1="55.524796" x2="206.23798" y2="46.972786" id="line421" style="fill:none;stroke:#000000;stroke-width:2" />
<line x1="206.24997" y1="46.972786" x2="217.44797" y2="38.474747" id="line423" style="fill:none;stroke:#000000;stroke-width:2" />
</svg>