<svg xmlns="http://www.w3.org/2000/svg" version="1.2" width="422.889" height="821.28" viewBox="0 0 422.88897 821.27973"><rect x="-821.28" width="8.737" height="85.223" transform="rotate(-90)"/><path d="M210.889 721.467c-59.778-1.222-121.778 37.778-132.326 99.503" stroke="#000" stroke-width="2" fill="none"/><path d="M4.111 818.245c44.673-32.321 69.699-77.183 89.959-122.043 48.861-105.672 72.695-213.337 89.38-325.988 15.492-111.653 23.834-221.313 22.643-331.969" stroke="#000" stroke-width="2" fill="none"/><rect x="-821.28" y="337.666" width="8.737" height="85.223" transform="rotate(-90)"/><path d="M212 721.467c59.777-1.222 121.777 37.778 132.326 99.503" stroke="#000" stroke-width="2" fill="none"/><path d="M418.778 818.245c-44.674-32.321-69.699-77.183-89.959-122.043-48.861-105.672-72.695-213.337-89.381-325.988-15.492-111.653-23.834-221.313-22.643-331.969" stroke="#000" stroke-width="2" fill="none"/><rect x="-38.655" y="202.111" width="22.509" height="18.438" transform="rotate(-90)" stroke="#000" stroke-width="2" fill="none"/><line x1="210.639" y1="5.699" x2="210.639" y2="16.224" stroke="#000" stroke-width="2" fill="none"/><circle cx="835.614" cy="240.736" r="2.843" transform="matrix(0 -1 1 0 -30.097 839.469)" stroke="#000" stroke-width="2" fill="none"/><rect x="-722.464" y="210.89" width="2.013" height="1.18" transform="rotate(-90)"/><path d="M154.328 664.024c14.815-39.656 23.456-81.421 29.751-123.365 6.48-43.177 11.853-86.751 15.822-130.255 4.061-44.503 6.213-89.162 7.923-133.82.362-9.444.705-18.893 1.042-28.339" stroke="#000" stroke-width="2" fill="none"/><line x1="155.641" y1="661.464" x2="264.932" y2="661.464" stroke="#000" stroke-width="2" fill="none"/><line x1="182.111" y1="549.245" x2="238.33" y2="549.245" stroke="#000" stroke-width="2" fill="none"/><line x1="155.641" y1="661.464" x2="92.111" y2="784.245" stroke="#000" stroke-width="2" fill="none"/><line x1="265.111" y1="659.464" x2="329.641" y2="782.245" stroke="#000" stroke-width="2" fill="none"/><line x1="143.889" y1="737.069" x2="126.111" y2="718.245" stroke="#000" stroke-width="2" fill="none"/><line x1="126.111" y1="718.922" x2="167.617" y2="727.223" stroke="#000" stroke-width="2" fill="none"/><line x1="167.617" y1="727.223" x2="135.45" y2="700.245" stroke="#000" stroke-width="2" fill="none"/><line x1="143.111" y1="737.245" x2="116.158" y2="737.245" stroke="#000" stroke-width="2" fill="none"/><line x1="135.111" y1="700.245" x2="285.956" y2="700.245" stroke="#000" stroke-width="2" fill="none"/><line x1="278.885" y1="737.069" x2="296.663" y2="718.245" stroke="#000" stroke-width="2" fill="none"/><line x1="296.663" y1="718.922" x2="255.158" y2="727.223" stroke="#000" stroke-width="2" fill="none"/><line x1="255.158" y1="727.223" x2="287.324" y2="700.245" stroke="#000" stroke-width="2" fill="none"/><line x1="279.663" y1="737.245" x2="306.617" y2="737.245" stroke="#000" stroke-width="2" fill="none"/><line x1="167.617" y1="727.223" x2="173.111" y2="700.281" stroke="#000" stroke-width="2" fill="none"/><line x1="173.111" y1="700.281" x2="190.111" y2="721.509" stroke="#000" stroke-width="2" fill="none"/><line x1="190.111" y1="722.468" x2="201.729" y2="700.666" stroke="#000" stroke-width="2" fill="none"/><line x1="254.729" y1="727.223" x2="249.235" y2="700.281" stroke="#000" stroke-width="2" fill="none"/><line x1="249.235" y1="700.281" x2="232.235" y2="721.509" stroke="#000" stroke-width="2" fill="none"/><line x1="232.235" y1="722.468" x2="220.617" y2="700.666" stroke="#000" stroke-width="2" fill="none"/><line x1="220.617" y1="700.666" x2="211.404" y2="720.619" stroke="#000" stroke-width="2" fill="none"/><line x1="201.896" y1="701.109" x2="210.54" y2="721.237" stroke="#000" stroke-width="2" fill="none"/><line x1="155.219" y1="661.964" x2="168.679" y2="699.627" stroke="#000" stroke-width="2" fill="none"/><line x1="168.679" y1="699.627" x2="180.409" y2="662.088" stroke="#000" stroke-width="2" fill="none"/><line x1="180.409" y1="662.092" x2="193.498" y2="699.75" stroke="#000" stroke-width="2" fill="none"/><line x1="193.498" y1="699.75" x2="203.748" y2="661.841" stroke="#000" stroke-width="2" fill="none"/><line x1="216.219" y1="661.964" x2="229.679" y2="699.627" stroke="#000" stroke-width="2" fill="none"/><line x1="229.679" y1="699.627" x2="241.409" y2="662.088" stroke="#000" stroke-width="2" fill="none"/><line x1="241.409" y1="662.092" x2="254.498" y2="699.75" stroke="#000" stroke-width="2" fill="none"/><line x1="254.498" y1="699.75" x2="264.748" y2="661.841" stroke="#000" stroke-width="2" fill="none"/><path d="M264.748 660.976c.018.354-.066.683-.247.988" stroke="#000" stroke-width="2" fill="none"/><line x1="198.81" y1="681.104" x2="222.272" y2="681.104" stroke="#000" stroke-width="2" fill="none"/><line x1="203.996" y1="661.717" x2="222.025" y2="680.116" stroke="#000" stroke-width="2" fill="none"/><line x1="199.427" y1="681.474" x2="228.446" y2="699.133" stroke="#000" stroke-width="2" fill="none"/><path d="M268.111 666.245c-15.384-39.873-24.356-81.866-30.894-124.039-6.729-43.413-12.309-87.225-16.43-130.966-4.216-44.747-6.451-89.649-8.228-134.551-.376-9.496-.731-18.995-1.082-28.494" stroke="#000" stroke-width="2" fill="none"/><line x1="197.522" y1="249.06" x2="224.462" y2="249.06" stroke="#000" stroke-width="2" fill="none"/><line x1="210.111" y1="548.245" x2="210.111" y2="249.06" stroke="#000" stroke-width="2" fill="none"/><line x1="204.318" y1="347.451" x2="209.111" y2="356.245" stroke="#000" stroke-width="2" fill="none"/><line x1="209.111" y1="356.245" x2="203.111" y2="373.245" stroke="#000" stroke-width="2" fill="none"/><line x1="203.111" y1="373.245" x2="209.111" y2="383.245" stroke="#000" stroke-width="2" fill="none"/><line x1="209.153" y1="383.245" x2="200.523" y2="405.245" stroke="#000" stroke-width="2" fill="none"/><line x1="200.523" y1="405.245" x2="210.111" y2="420.245" stroke="#000" stroke-width="2" fill="none"/><line x1="210.111" y1="420.245" x2="197.111" y2="438.245" stroke="#000" stroke-width="2" fill="none"/><line x1="197.111" y1="438.245" x2="210.111" y2="442.245" stroke="#000" stroke-width="2" fill="none"/><line x1="210.117" y1="442.245" x2="194.759" y2="459.245" stroke="#000" stroke-width="2" fill="none"/><line x1="194.876" y1="459.245" x2="210.172" y2="467.245" stroke="#000" stroke-width="2" fill="none"/><line x1="210.172" y1="467.245" x2="192.111" y2="480.245" stroke="#000" stroke-width="2" fill="none"/><line x1="192.48" y1="480.245" x2="210.201" y2="488.245" stroke="#000" stroke-width="2" fill="none"/><line x1="210.067" y1="488.245" x2="190.082" y2="499.245" stroke="#000" stroke-width="2" fill="none"/><line x1="190.082" y1="499.245" x2="209.111" y2="515.245" stroke="#000" stroke-width="2" fill="none"/><line x1="209.092" y1="515.245" x2="186.356" y2="525.245" stroke="#000" stroke-width="2" fill="none"/><line x1="186.664" y1="525.245" x2="209.347" y2="536.245" stroke="#000" stroke-width="2" fill="none"/><line x1="209.347" y1="536.245" x2="182.456" y2="549.245" stroke="#000" stroke-width="2" fill="none"/><line x1="209.148" y1="548.844" x2="185.516" y2="536.425" stroke="#000" stroke-width="2" fill="none"/><line x1="185.516" y1="536.425" x2="209.665" y2="523.832" stroke="#000" stroke-width="2" fill="none"/><line x1="209.665" y1="523.832" x2="188.793" y2="511.24" stroke="#000" stroke-width="2" fill="none"/><line x1="188.793" y1="511.24" x2="209.32" y2="500.373" stroke="#000" stroke-width="2" fill="none"/><line x1="209.32" y1="500.373" x2="191.553" y2="487.263" stroke="#000" stroke-width="2" fill="none"/><line x1="191.553" y1="487.263" x2="209.32" y2="477.776" stroke="#000" stroke-width="2" fill="none"/><line x1="209.32" y1="477.776" x2="193.796" y2="467.427" stroke="#000" stroke-width="2" fill="none"/><line x1="193.796" y1="467.427" x2="209.838" y2="455.179" stroke="#000" stroke-width="2" fill="none"/><line x1="209.838" y1="455.179" x2="195.865" y2="446.21" stroke="#000" stroke-width="2" fill="none"/><line x1="196.211" y1="446.21" x2="209.665" y2="431.548" stroke="#000" stroke-width="2" fill="none"/><line x1="209.665" y1="431.548" x2="199.316" y2="421.89" stroke="#000" stroke-width="2" fill="none"/><line x1="198.626" y1="422.062" x2="209.838" y2="400.845" stroke="#000" stroke-width="2" fill="none"/><line x1="209.838" y1="400.845" x2="202.075" y2="387.219" stroke="#000" stroke-width="2" fill="none"/><line x1="202.075" y1="387.219" x2="209.493" y2="369.624" stroke="#000" stroke-width="2" fill="none"/><line x1="208.975" y1="370.143" x2="203.973" y2="358.069" stroke="#000" stroke-width="2" fill="none"/><line x1="203.973" y1="358.069" x2="210.355" y2="344.097" stroke="#000" stroke-width="2" fill="none"/><line x1="215.844" y1="347.231" x2="211.05" y2="356.026" stroke="#000" stroke-width="2" fill="none"/><line x1="211.05" y1="356.026" x2="217.05" y2="373.026" stroke="#000" stroke-width="2" fill="none"/><line x1="217.05" y1="373.026" x2="211.05" y2="383.026" stroke="#000" stroke-width="2" fill="none"/><line x1="211.009" y1="383.026" x2="219.638" y2="405.026" stroke="#000" stroke-width="2" fill="none"/><line x1="219.638" y1="405.026" x2="210.05" y2="420.026" stroke="#000" stroke-width="2" fill="none"/><line x1="210.05" y1="420.026" x2="223.05" y2="438.026" stroke="#000" stroke-width="2" fill="none"/><line x1="223.05" y1="438.026" x2="210.05" y2="442.026" stroke="#000" stroke-width="2" fill="none"/><line x1="210.044" y1="442.026" x2="225.402" y2="459.026" stroke="#000" stroke-width="2" fill="none"/><line x1="225.285" y1="459.026" x2="209.99" y2="467.026" stroke="#000" stroke-width="2" fill="none"/><line x1="209.99" y1="467.026" x2="228.05" y2="480.026" stroke="#000" stroke-width="2" fill="none"/><line x1="227.682" y1="480.026" x2="209.96" y2="488.026" stroke="#000" stroke-width="2" fill="none"/><line x1="210.095" y1="488.026" x2="230.08" y2="499.026" stroke="#000" stroke-width="2" fill="none"/><line x1="230.08" y1="499.026" x2="211.05" y2="515.026" stroke="#000" stroke-width="2" fill="none"/><line x1="211.07" y1="515.026" x2="233.806" y2="525.026" stroke="#000" stroke-width="2" fill="none"/><line x1="233.497" y1="525.026" x2="210.814" y2="536.026" stroke="#000" stroke-width="2" fill="none"/><line x1="210.814" y1="536.026" x2="238.05" y2="549.026" stroke="#000" stroke-width="2" fill="none"/><line x1="211.051" y1="548.625" x2="236.402" y2="536.205" stroke="#000" stroke-width="2" fill="none"/><line x1="236.402" y1="536.205" x2="210.496" y2="523.613" stroke="#000" stroke-width="2" fill="none"/><line x1="210.496" y1="523.613" x2="232.09" y2="511.021" stroke="#000" stroke-width="2" fill="none"/><line x1="232.09" y1="511.021" x2="210.853" y2="500.154" stroke="#000" stroke-width="2" fill="none"/><line x1="210.841" y1="500.154" x2="228.608" y2="487.044" stroke="#000" stroke-width="2" fill="none"/><line x1="228.608" y1="487.044" x2="210.841" y2="477.557" stroke="#000" stroke-width="2" fill="none"/><line x1="210.841" y1="477.557" x2="226.366" y2="467.207" stroke="#000" stroke-width="2" fill="none"/><line x1="226.366" y1="467.207" x2="210.324" y2="454.96" stroke="#000" stroke-width="2" fill="none"/><line x1="210.324" y1="454.96" x2="224.296" y2="445.99" stroke="#000" stroke-width="2" fill="none"/><line x1="223.951" y1="445.99" x2="210.496" y2="431.328" stroke="#000" stroke-width="2" fill="none"/><line x1="210.496" y1="431.328" x2="220.846" y2="421.67" stroke="#000" stroke-width="2" fill="none"/><line x1="221.536" y1="421.843" x2="210.324" y2="400.626" stroke="#000" stroke-width="2" fill="none"/><line x1="210.324" y1="400.626" x2="218.086" y2="386.999" stroke="#000" stroke-width="2" fill="none"/><line x1="218.086" y1="386.999" x2="210.669" y2="369.405" stroke="#000" stroke-width="2" fill="none"/><line x1="211.186" y1="369.925" x2="216.189" y2="357.85" stroke="#000" stroke-width="2" fill="none"/><line x1="216.189" y1="357.85" x2="210.151" y2="344.741" stroke="#000" stroke-width="2" fill="none"/><line x1="79.577" y1="815.825" x2="52.167" y2="770.58" stroke="#000" stroke-width="2" fill="none"/><line x1="52.111" y1="770.245" x2="115.111" y2="737.245" stroke="#000" stroke-width="2" fill="none"/><line x1="115.111" y1="737.245" x2="104.111" y2="673.245" stroke="#000" stroke-width="2" fill="none"/><line x1="104.442" y1="672.245" x2="157.111" y2="656.575" stroke="#000" stroke-width="2" fill="none"/><line x1="156.111" y1="656.245" x2="136.111" y2="589.245" stroke="#000" stroke-width="2" fill="none"/><line x1="136.111" y1="589.245" x2="181.625" y2="555.257" stroke="#000" stroke-width="2" fill="none"/><line x1="181.111" y1="555.245" x2="160.111" y2="498.245" stroke="#000" stroke-width="2" fill="none"/><line x1="160.111" y1="498.245" x2="194.111" y2="462.245" stroke="#000" stroke-width="2" fill="none"/><line x1="193.111" y1="462.245" x2="177.332" y2="411.268" stroke="#000" stroke-width="2" fill="none"/><line x1="12.111" y1="812.245" x2="97.111" y2="776.245" stroke="#000" stroke-width="2" fill="none"/><line x1="97.111" y1="776.245" x2="82.111" y2="721.245" stroke="#000" stroke-width="2" fill="none"/><line x1="82.111" y1="721.245" x2="138.111" y2="693.245" stroke="#000" stroke-width="2" fill="none"/><line x1="138.111" y1="693.245" x2="120.528" y2="631.545" stroke="#000" stroke-width="2" fill="none"/><line x1="121.424" y1="632.245" x2="172.378" y2="603.473" stroke="#000" stroke-width="2" fill="none"/><line x1="172.111" y1="603.245" x2="147.609" y2="546.67" stroke="#000" stroke-width="2" fill="none"/><line x1="148.27" y1="547.992" x2="189.111" y2="504.245" stroke="#000" stroke-width="2" fill="none"/><line x1="189.111" y1="504.245" x2="168.415" y2="457.503" stroke="#000" stroke-width="2" fill="none"/><line x1="169.075" y1="459.155" x2="198.626" y2="422.062" stroke="#000" stroke-width="2" fill="none"/><line x1="198.167" y1="421.668" x2="181.295" y2="384.852" stroke="#000" stroke-width="2" fill="none"/><line x1="181.295" y1="384.852" x2="202.431" y2="361.735" stroke="#000" stroke-width="2" fill="none"/><line x1="202.431" y1="361.735" x2="189.551" y2="329.371" stroke="#000" stroke-width="2" fill="none"/><line x1="189.551" y1="329.371" x2="205.403" y2="307.904" stroke="#000" stroke-width="2" fill="none"/><line x1="205.403" y1="307.904" x2="193.844" y2="283.796" stroke="#000" stroke-width="2" fill="none"/><line x1="193.844" y1="283.796" x2="207.715" y2="268.604" stroke="#000" stroke-width="2" fill="none"/><line x1="207.715" y1="268.604" x2="197.477" y2="248.129" stroke="#000" stroke-width="2" fill="none"/><line x1="177.332" y1="411.268" x2="201.11" y2="387.163" stroke="#000" stroke-width="2" fill="none"/><line x1="201.236" y1="387.163" x2="185.36" y2="358.1" stroke="#000" stroke-width="2" fill="none"/><line x1="185.36" y1="358.1" x2="204.412" y2="334.323" stroke="#000" stroke-width="2" fill="none"/><line x1="204.742" y1="334.332" x2="191.862" y2="305.269" stroke="#000" stroke-width="2" fill="none"/><line x1="191.862" y1="304.269" x2="207.054" y2="284.125" stroke="#000" stroke-width="2" fill="none"/><line x1="207.054" y1="284.125" x2="195.826" y2="264.639" stroke="#000" stroke-width="2" fill="none"/><line x1="196.486" y1="266.291" x2="208.206" y2="248.575" stroke="#000" stroke-width="2" fill="none"/><line x1="412.045" y1="813.197" x2="318.583" y2="760.934" stroke="#000" stroke-width="2" fill="none"/><line x1="318.583" y1="760.934" x2="325.449" y2="689.217" stroke="#000" stroke-width="2" fill="none"/><line x1="325.449" y1="689.217" x2="272.424" y2="673.957" stroke="#000" stroke-width="2" fill="none"/><line x1="272.424" y1="673.957" x2="292.261" y2="604.91" stroke="#000" stroke-width="2" fill="none"/><line x1="292.261" y1="604.91" x2="240.762" y2="562.567" stroke="#000" stroke-width="2" fill="none"/><line x1="240.762" y1="562.567" x2="269.123" y2="525.945" stroke="#000" stroke-width="2" fill="none"/><line x1="268.61" y1="525.945" x2="230.844" y2="491.995" stroke="#000" stroke-width="2" fill="none"/><line x1="230.844" y1="491.995" x2="249.536" y2="436.3" stroke="#000" stroke-width="2" fill="none"/><line x1="249.536" y1="436.3" x2="222.07" y2="421.042" stroke="#000" stroke-width="2" fill="none"/><line x1="222.07" y1="421.042" x2="240.762" y2="387.472" stroke="#000" stroke-width="2" fill="none"/><line x1="241.907" y1="387.093" x2="218.637" y2="374.884" stroke="#000" stroke-width="2" fill="none"/><line x1="218.637" y1="374.884" x2="236.948" y2="352.759" stroke="#000" stroke-width="2" fill="none"/><line x1="236.948" y1="352.759" x2="215.204" y2="336.356" stroke="#000" stroke-width="2" fill="none"/><line x1="215.204" y1="336.356" x2="230.844" y2="312.705" stroke="#000" stroke-width="2" fill="none"/><line x1="230.844" y1="312.705" x2="214.441" y2="301.261" stroke="#000" stroke-width="2" fill="none"/><line x1="214.441" y1="301.261" x2="229.7" y2="287.909" stroke="#000" stroke-width="2" fill="none"/><line x1="229.7" y1="287.909" x2="213.296" y2="279.898" stroke="#000" stroke-width="2" fill="none"/><line x1="213.296" y1="279.898" x2="227.029" y2="266.547" stroke="#000" stroke-width="2" fill="none"/><line x1="227.029" y1="266.547" x2="212.533" y2="260.824" stroke="#000" stroke-width="2" fill="none"/><line x1="212.533" y1="260.824" x2="225.122" y2="247.854" stroke="#000" stroke-width="2" fill="none"/><line x1="342.235" y1="813.578" x2="362.834" y2="760.934" stroke="#000" stroke-width="2" fill="none"/><line x1="362.834" y1="760.934" x2="295.314" y2="717.827" stroke="#000" stroke-width="2" fill="none"/><line x1="295.314" y1="717.827" x2="308.283" y2="651.451" stroke="#000" stroke-width="2" fill="none"/><line x1="308.283" y1="651.451" x2="254.114" y2="620.933" stroke="#000" stroke-width="2" fill="none"/><line x1="254.114" y1="620.933" x2="280.055" y2="566.763" stroke="#000" stroke-width="2" fill="none"/><line x1="279.291" y1="567.145" x2="234.278" y2="526.327" stroke="#000" stroke-width="2" fill="none"/><line x1="234.278" y1="526.327" x2="257.929" y2="476.737" stroke="#000" stroke-width="2" fill="none"/><line x1="257.929" y1="476.737" x2="224.74" y2="451.178" stroke="#000" stroke-width="2" fill="none"/><line x1="224.74" y1="451.178" x2="244.196" y2="410.361" stroke="#000" stroke-width="2" fill="none"/><line x1="244.196" y1="410.361" x2="219.018" y2="394.72" stroke="#000" stroke-width="2" fill="none"/><line x1="218.637" y1="395.864" x2="238.092" y2="367.254" stroke="#000" stroke-width="2" fill="none"/><line x1="238.092" y1="367.254" x2="215.585" y2="351.996" stroke="#000" stroke-width="2" fill="none"/><line x1="215.585" y1="351.996" x2="233.133" y2="326.819" stroke="#000" stroke-width="2" fill="none"/><line x1="233.133" y1="326.819" x2="214.822" y2="318.808" stroke="#000" stroke-width="2" fill="none"/><line x1="214.822" y1="318.808" x2="229.318" y2="298.208" stroke="#000" stroke-width="2" fill="none"/><line x1="229.318" y1="298.208" x2="213.678" y2="289.816" stroke="#000" stroke-width="2" fill="none"/><line x1="213.678" y1="289.816" x2="227.029" y2="276.083" stroke="#000" stroke-width="2" fill="none"/><line x1="227.029" y1="276.083" x2="212.915" y2="269.597" stroke="#000" stroke-width="2" fill="none"/><line x1="212.915" y1="269.597" x2="224.359" y2="257.009" stroke="#000" stroke-width="2" fill="none"/><line x1="225.359" y1="257.009" x2="211.871" y2="248.67" stroke="#000" stroke-width="2" fill="none"/><line x1="197.447" y1="249.69" x2="222.095" y2="219.509" stroke="#000" stroke-width="2" fill="none"/><line x1="222.095" y1="219.509" x2="201.471" y2="197.88" stroke="#000" stroke-width="2" fill="none"/><line x1="201.471" y1="197.88" x2="219.076" y2="177.759" stroke="#000" stroke-width="2" fill="none"/><line x1="219.076" y1="177.759" x2="203.986" y2="161.159" stroke="#000" stroke-width="2" fill="none"/><line x1="203.986" y1="161.159" x2="218.573" y2="145.062" stroke="#000" stroke-width="2" fill="none"/><line x1="218.573" y1="145.062" x2="204.688" y2="132.99" stroke="#000" stroke-width="2" fill="none"/><line x1="204.688" y1="132.99" x2="216.658" y2="116.893" stroke="#000" stroke-width="2" fill="none"/><line x1="216.562" y1="116.893" x2="205.998" y2="99.288" stroke="#000" stroke-width="2" fill="none"/><line x1="205.998" y1="99.288" x2="216.058" y2="88.221" stroke="#000" stroke-width="2" fill="none"/><line x1="216.058" y1="88.221" x2="205.998" y2="75.646" stroke="#000" stroke-width="2" fill="none"/><line x1="205.998" y1="75.646" x2="216.147" y2="66.089" stroke="#000" stroke-width="2" fill="none"/><line x1="216.197" y1="66.089" x2="206.532" y2="55.525" stroke="#000" stroke-width="2" fill="none"/><line x1="206.501" y1="55.525" x2="216.058" y2="46.973" stroke="#000" stroke-width="2" fill="none"/><line x1="216.058" y1="46.973" x2="205.908" y2="38.673" stroke="#000" stroke-width="2" fill="none"/><line x1="225.452" y1="249.841" x2="200.852" y2="219.409" stroke="#000" stroke-width="2" fill="none"/><line x1="200.852" y1="219.409" x2="221.264" y2="197.245" stroke="#000" stroke-width="2" fill="none"/><line x1="221.344" y1="197.88" x2="203.219" y2="177.759" stroke="#000" stroke-width="2" fill="none"/><line x1="203.351" y1="177.759" x2="219.437" y2="161.159" stroke="#000" stroke-width="2" fill="none"/><line x1="219.555" y1="161.159" x2="204.968" y2="145.062" stroke="#000" stroke-width="2" fill="none"/><line x1="204.968" y1="145.062" x2="218.153" y2="132.99" stroke="#000" stroke-width="2" fill="none"/><line x1="218.153" y1="132.99" x2="205.136" y2="116.893" stroke="#000" stroke-width="2" fill="none"/><line x1="205.358" y1="116.893" x2="216.879" y2="99.288" stroke="#000" stroke-width="2" fill="none"/><line x1="217.04" y1="99.288" x2="207.082" y2="88.221" stroke="#000" stroke-width="2" fill="none"/><line x1="206.584" y1="88.221" x2="216.543" y2="75.646" stroke="#000" stroke-width="2" fill="none"/><line x1="216.562" y1="75.646" x2="207.459" y2="66.089" stroke="#000" stroke-width="2" fill="none"/><line x1="205.951" y1="66.592" x2="216.562" y2="55.525" stroke="#000" stroke-width="2" fill="none"/><line x1="216.451" y1="55.525" x2="206.238" y2="46.973" stroke="#000" stroke-width="2" fill="none"/><line x1="206.25" y1="46.973" x2="217.448" y2="38.475" stroke="#000" stroke-width="2" fill="none"/></svg>